<mxfile host="app.diagrams.net" modified="2022-07-16T09:40:23.969Z" agent="5.0 (Macintosh)" etag="RnAM8hjHxQHU7MQ-R7tL" version="20.0.4" type="github" pages="4">
  <diagram id="eb1eRnADK8SnI6HN4MPC" name="Page-1">
    <mxGraphModel dx="1186" dy="762" grid="1" gridSize="10" guides="1" tooltips="1" connect="1" arrows="1" fold="1" page="1" pageScale="1" pageWidth="827" pageHeight="1169" math="0" shadow="0">
      <root>
        <mxCell id="0" />
        <mxCell id="1" parent="0" />
        <mxCell id="dta8m5sLdHHKCTiRfItw-2" value="&lt;b style=&quot;font-size: 16px;&quot;&gt;Real&lt;/b&gt;" style="rounded=0;whiteSpace=wrap;html=1;fillColor=#dae8fc;strokeColor=default;fontSize=16;" parent="1" vertex="1">
          <mxGeometry x="42" y="200" width="400" height="80" as="geometry" />
        </mxCell>
        <mxCell id="dta8m5sLdHHKCTiRfItw-3" value="Val" style="rounded=0;whiteSpace=wrap;html=1;fillColor=#ffe6cc;strokeColor=default;fontSize=16;fontStyle=1" parent="1" vertex="1">
          <mxGeometry x="242" y="340" width="80" height="80" as="geometry" />
        </mxCell>
        <mxCell id="dta8m5sLdHHKCTiRfItw-7" value="6k" style="text;html=1;strokeColor=none;fillColor=none;align=center;verticalAlign=middle;whiteSpace=wrap;rounded=0;" parent="1" vertex="1">
          <mxGeometry x="162" y="400" width="80" height="20" as="geometry" />
        </mxCell>
        <mxCell id="dta8m5sLdHHKCTiRfItw-5" value="&lt;div style=&quot;font-size: 16px;&quot;&gt;&lt;b style=&quot;font-size: 16px;&quot;&gt;Train&lt;/b&gt;&lt;/div&gt;" style="rounded=0;whiteSpace=wrap;html=1;fillColor=#fff2cc;strokeColor=default;fontSize=16;" parent="1" vertex="1">
          <mxGeometry x="322" y="340" width="240" height="80" as="geometry" />
        </mxCell>
        <mxCell id="dta8m5sLdHHKCTiRfItw-9" value="18k" style="text;html=1;strokeColor=none;fillColor=none;align=center;verticalAlign=middle;whiteSpace=wrap;rounded=0;" parent="1" vertex="1">
          <mxGeometry x="322" y="400" width="240" height="20" as="geometry" />
        </mxCell>
        <mxCell id="dta8m5sLdHHKCTiRfItw-10" value="30k" style="text;html=1;strokeColor=none;fillColor=none;align=center;verticalAlign=middle;whiteSpace=wrap;rounded=0;" parent="1" vertex="1">
          <mxGeometry x="42" y="200" width="400" height="20" as="geometry" />
        </mxCell>
        <mxCell id="dta8m5sLdHHKCTiRfItw-20" value="&lt;b style=&quot;font-size: 16px;&quot;&gt;Generated&lt;/b&gt;" style="rounded=0;whiteSpace=wrap;html=1;fillColor=#d5e8d4;strokeColor=default;fontSize=16;" parent="1" vertex="1">
          <mxGeometry x="442" y="200" width="400" height="80" as="geometry" />
        </mxCell>
        <mxCell id="dta8m5sLdHHKCTiRfItw-21" value="30k" style="text;html=1;strokeColor=none;fillColor=none;align=center;verticalAlign=middle;whiteSpace=wrap;rounded=0;fontSize=12;" parent="1" vertex="1">
          <mxGeometry x="442" y="200" width="400" height="20" as="geometry" />
        </mxCell>
        <mxCell id="dta8m5sLdHHKCTiRfItw-22" value="&lt;b style=&quot;font-size: 16px;&quot;&gt;Test&lt;/b&gt;" style="rounded=0;whiteSpace=wrap;html=1;fillColor=#f8cecc;strokeColor=default;fontSize=16;" parent="1" vertex="1">
          <mxGeometry x="162" y="340" width="80" height="80" as="geometry" />
        </mxCell>
        <mxCell id="dta8m5sLdHHKCTiRfItw-23" value="6k" style="text;html=1;strokeColor=none;fillColor=none;align=center;verticalAlign=middle;whiteSpace=wrap;rounded=0;" parent="1" vertex="1">
          <mxGeometry x="242" y="400" width="80" height="20" as="geometry" />
        </mxCell>
        <mxCell id="dta8m5sLdHHKCTiRfItw-24" value="&lt;div&gt;Real&lt;/div&gt;" style="rounded=0;whiteSpace=wrap;html=1;strokeColor=default;fillColor=none;" parent="1" vertex="1">
          <mxGeometry x="322" y="340" width="120" height="20" as="geometry" />
        </mxCell>
        <mxCell id="dta8m5sLdHHKCTiRfItw-25" value="Generated" style="rounded=0;whiteSpace=wrap;html=1;strokeColor=default;fillColor=none;" parent="1" vertex="1">
          <mxGeometry x="442" y="340" width="120" height="20" as="geometry" />
        </mxCell>
        <mxCell id="dta8m5sLdHHKCTiRfItw-26" value="Source Datasets" style="text;html=1;strokeColor=none;fillColor=none;align=center;verticalAlign=middle;whiteSpace=wrap;rounded=0;rotation=0;fontStyle=1;fontSize=20;" parent="1" vertex="1">
          <mxGeometry x="270" y="160" width="350" height="40" as="geometry" />
        </mxCell>
        <mxCell id="dta8m5sLdHHKCTiRfItw-28" value="6k" style="text;html=1;strokeColor=none;fillColor=none;align=center;verticalAlign=middle;whiteSpace=wrap;rounded=0;" parent="1" vertex="1">
          <mxGeometry x="162" y="400" width="80" height="20" as="geometry" />
        </mxCell>
        <mxCell id="dta8m5sLdHHKCTiRfItw-29" value="9k" style="text;html=1;strokeColor=none;fillColor=none;align=center;verticalAlign=middle;whiteSpace=wrap;rounded=0;fontColor=#FF3333;" parent="1" vertex="1">
          <mxGeometry x="439" y="360" width="123" height="20" as="geometry" />
        </mxCell>
        <mxCell id="dta8m5sLdHHKCTiRfItw-30" value="9k" style="text;html=1;strokeColor=none;fillColor=none;align=center;verticalAlign=middle;whiteSpace=wrap;rounded=0;fontColor=#FF3333;" parent="1" vertex="1">
          <mxGeometry x="322" y="360" width="123" height="20" as="geometry" />
        </mxCell>
        <mxCell id="dta8m5sLdHHKCTiRfItw-31" value="" style="shape=flexArrow;endArrow=classic;html=1;rounded=0;" parent="1" edge="1">
          <mxGeometry width="50" height="50" relative="1" as="geometry">
            <mxPoint x="200" y="280" as="sourcePoint" />
            <mxPoint x="200" y="340" as="targetPoint" />
          </mxGeometry>
        </mxCell>
        <mxCell id="dta8m5sLdHHKCTiRfItw-32" value="" style="shape=flexArrow;endArrow=classic;html=1;rounded=0;exitX=0.398;exitY=0.998;exitDx=0;exitDy=0;exitPerimeter=0;" parent="1" edge="1">
          <mxGeometry width="50" height="50" relative="1" as="geometry">
            <mxPoint x="281.6" y="279.99999999999994" as="sourcePoint" />
            <mxPoint x="282" y="340" as="targetPoint" />
          </mxGeometry>
        </mxCell>
        <mxCell id="dta8m5sLdHHKCTiRfItw-33" value="" style="shape=flexArrow;endArrow=classic;html=1;rounded=0;exitX=0.398;exitY=0.998;exitDx=0;exitDy=0;exitPerimeter=0;" parent="1" edge="1">
          <mxGeometry width="50" height="50" relative="1" as="geometry">
            <mxPoint x="381.6" y="279.8399999999999" as="sourcePoint" />
            <mxPoint x="382" y="340" as="targetPoint" />
          </mxGeometry>
        </mxCell>
        <mxCell id="dta8m5sLdHHKCTiRfItw-34" value="" style="shape=flexArrow;endArrow=classic;html=1;rounded=0;exitX=0.398;exitY=0.998;exitDx=0;exitDy=0;exitPerimeter=0;" parent="1" edge="1">
          <mxGeometry width="50" height="50" relative="1" as="geometry">
            <mxPoint x="500.1" y="279.8399999999999" as="sourcePoint" />
            <mxPoint x="501" y="340" as="targetPoint" />
          </mxGeometry>
        </mxCell>
        <mxCell id="dta8m5sLdHHKCTiRfItw-35" value="Destination Datsets" style="text;html=1;strokeColor=none;fillColor=none;align=center;verticalAlign=middle;whiteSpace=wrap;rounded=0;rotation=0;fontStyle=1;fontSize=20;" parent="1" vertex="1">
          <mxGeometry x="220" y="420" width="280" height="40" as="geometry" />
        </mxCell>
        <mxCell id="dta8m5sLdHHKCTiRfItw-36" value="" style="endArrow=none;html=1;strokeWidth=2;rounded=0;fontSize=12;exitX=0;exitY=1;exitDx=0;exitDy=0;strokeColor=#FF3333;" parent="1" source="dta8m5sLdHHKCTiRfItw-25" edge="1">
          <mxGeometry width="50" height="50" relative="1" as="geometry">
            <mxPoint x="445" y="340" as="sourcePoint" />
            <mxPoint x="442" y="320" as="targetPoint" />
          </mxGeometry>
        </mxCell>
        <mxCell id="dta8m5sLdHHKCTiRfItw-37" value="" style="endArrow=classic;startArrow=classic;html=1;rounded=0;fontSize=12;strokeWidth=1;fontColor=#FF3333;labelBackgroundColor=#FF3333;strokeColor=#FF3333;" parent="1" edge="1">
          <mxGeometry width="50" height="50" relative="1" as="geometry">
            <mxPoint x="422" y="330" as="sourcePoint" />
            <mxPoint x="462" y="330" as="targetPoint" />
          </mxGeometry>
        </mxCell>
        <mxCell id="dta8m5sLdHHKCTiRfItw-40" value="Âµ" style="text;html=1;strokeColor=none;fillColor=none;align=center;verticalAlign=middle;whiteSpace=wrap;rounded=0;fontSize=16;fontStyle=0;fontColor=#FF3333;" parent="1" vertex="1">
          <mxGeometry x="412" y="290" width="60" height="30" as="geometry" />
        </mxCell>
      </root>
    </mxGraphModel>
  </diagram>
  <diagram id="KL3VkLkDe1GEbpivyDhF" name="Page-2">
    <mxGraphModel dx="1186" dy="762" grid="1" gridSize="10" guides="1" tooltips="1" connect="1" arrows="1" fold="1" page="1" pageScale="1" pageWidth="827" pageHeight="1169" math="0" shadow="0">
      <root>
        <mxCell id="0" />
        <mxCell id="1" parent="0" />
        <mxCell id="naMySs-0_EDx3IMrcmwN-1" value="&lt;b style=&quot;font-size: 16px;&quot;&gt;Real&lt;/b&gt;" style="rounded=0;whiteSpace=wrap;html=1;fillColor=#dae8fc;strokeColor=default;fontSize=16;" parent="1" vertex="1">
          <mxGeometry x="42" y="200" width="400" height="80" as="geometry" />
        </mxCell>
        <mxCell id="naMySs-0_EDx3IMrcmwN-2" value="&lt;div&gt;&lt;br&gt;&lt;/div&gt;&lt;div&gt;Val&lt;/div&gt;" style="rounded=0;whiteSpace=wrap;html=1;fillColor=#ffe6cc;strokeColor=default;fontSize=16;fontStyle=1" parent="1" vertex="1">
          <mxGeometry x="324" y="340.16" width="80" height="80" as="geometry" />
        </mxCell>
        <mxCell id="naMySs-0_EDx3IMrcmwN-3" value="6k" style="text;html=1;strokeColor=none;fillColor=none;align=center;verticalAlign=middle;whiteSpace=wrap;rounded=0;" parent="1" vertex="1">
          <mxGeometry x="244" y="400.16" width="80" height="20" as="geometry" />
        </mxCell>
        <mxCell id="naMySs-0_EDx3IMrcmwN-4" value="&lt;div style=&quot;font-size: 16px;&quot;&gt;&lt;b style=&quot;font-size: 16px;&quot;&gt;&lt;br&gt;&lt;/b&gt;&lt;/div&gt;&lt;div style=&quot;font-size: 16px;&quot;&gt;&lt;b style=&quot;font-size: 16px;&quot;&gt;Train&lt;/b&gt;&lt;/div&gt;" style="rounded=0;whiteSpace=wrap;html=1;fillColor=#fff2cc;strokeColor=default;fontSize=16;" parent="1" vertex="1">
          <mxGeometry x="404" y="340.16" width="248" height="80" as="geometry" />
        </mxCell>
        <mxCell id="naMySs-0_EDx3IMrcmwN-5" value="&lt;font color=&quot;#FF3333&quot;&gt;18k&lt;/font&gt;" style="text;html=1;strokeColor=none;fillColor=none;align=center;verticalAlign=middle;whiteSpace=wrap;rounded=0;" parent="1" vertex="1">
          <mxGeometry x="404" y="400.16" width="240" height="20" as="geometry" />
        </mxCell>
        <mxCell id="naMySs-0_EDx3IMrcmwN-6" value="30k" style="text;html=1;strokeColor=none;fillColor=none;align=center;verticalAlign=middle;whiteSpace=wrap;rounded=0;" parent="1" vertex="1">
          <mxGeometry x="42" y="200" width="400" height="20" as="geometry" />
        </mxCell>
        <mxCell id="naMySs-0_EDx3IMrcmwN-7" value="&lt;b style=&quot;font-size: 16px;&quot;&gt;Generated&lt;/b&gt;" style="rounded=0;whiteSpace=wrap;html=1;fillColor=#d5e8d4;strokeColor=default;fontSize=16;" parent="1" vertex="1">
          <mxGeometry x="442" y="200" width="400" height="80" as="geometry" />
        </mxCell>
        <mxCell id="naMySs-0_EDx3IMrcmwN-8" value="30k" style="text;html=1;strokeColor=none;fillColor=none;align=center;verticalAlign=middle;whiteSpace=wrap;rounded=0;fontSize=12;" parent="1" vertex="1">
          <mxGeometry x="442" y="200" width="400" height="20" as="geometry" />
        </mxCell>
        <mxCell id="naMySs-0_EDx3IMrcmwN-9" value="&lt;div&gt;&lt;b style=&quot;font-size: 16px;&quot;&gt;&lt;br&gt;&lt;/b&gt;&lt;/div&gt;&lt;div&gt;&lt;b style=&quot;font-size: 16px;&quot;&gt;Test&lt;/b&gt;&lt;/div&gt;" style="rounded=0;whiteSpace=wrap;html=1;fillColor=#f8cecc;strokeColor=default;fontSize=16;" parent="1" vertex="1">
          <mxGeometry x="244" y="340.16" width="80" height="80" as="geometry" />
        </mxCell>
        <mxCell id="naMySs-0_EDx3IMrcmwN-10" value="6k" style="text;html=1;strokeColor=none;fillColor=none;align=center;verticalAlign=middle;whiteSpace=wrap;rounded=0;" parent="1" vertex="1">
          <mxGeometry x="324" y="400.16" width="80" height="20" as="geometry" />
        </mxCell>
        <mxCell id="naMySs-0_EDx3IMrcmwN-11" value="&lt;div&gt;Real&lt;/div&gt;" style="rounded=0;whiteSpace=wrap;html=1;strokeColor=default;fillColor=none;" parent="1" vertex="1">
          <mxGeometry x="404" y="340.16" width="38" height="20" as="geometry" />
        </mxCell>
        <mxCell id="naMySs-0_EDx3IMrcmwN-12" value="Generated" style="rounded=0;whiteSpace=wrap;html=1;strokeColor=default;fillColor=none;" parent="1" vertex="1">
          <mxGeometry x="442" y="340.16" width="210" height="20" as="geometry" />
        </mxCell>
        <mxCell id="naMySs-0_EDx3IMrcmwN-13" value="Source Datasets" style="text;html=1;strokeColor=none;fillColor=none;align=center;verticalAlign=middle;whiteSpace=wrap;rounded=0;rotation=0;fontStyle=1;fontSize=20;" parent="1" vertex="1">
          <mxGeometry x="270" y="160" width="350" height="40" as="geometry" />
        </mxCell>
        <mxCell id="naMySs-0_EDx3IMrcmwN-14" value="6k" style="text;html=1;strokeColor=none;fillColor=none;align=center;verticalAlign=middle;whiteSpace=wrap;rounded=0;" parent="1" vertex="1">
          <mxGeometry x="244" y="400.16" width="80" height="20" as="geometry" />
        </mxCell>
        <mxCell id="naMySs-0_EDx3IMrcmwN-15" value="&lt;div&gt;17k&lt;/div&gt;" style="text;html=1;strokeColor=none;fillColor=none;align=center;verticalAlign=middle;whiteSpace=wrap;rounded=0;fontColor=#FF3333;" parent="1" vertex="1">
          <mxGeometry x="440" y="360.16" width="204" height="20" as="geometry" />
        </mxCell>
        <mxCell id="naMySs-0_EDx3IMrcmwN-16" value="1k" style="text;html=1;strokeColor=none;fillColor=none;align=center;verticalAlign=middle;whiteSpace=wrap;rounded=0;" parent="1" vertex="1">
          <mxGeometry x="404" y="360.16" width="36" height="20" as="geometry" />
        </mxCell>
        <mxCell id="naMySs-0_EDx3IMrcmwN-17" value="" style="shape=flexArrow;endArrow=classic;html=1;rounded=0;" parent="1" edge="1">
          <mxGeometry width="50" height="50" relative="1" as="geometry">
            <mxPoint x="282" y="280.16" as="sourcePoint" />
            <mxPoint x="282" y="340.16" as="targetPoint" />
          </mxGeometry>
        </mxCell>
        <mxCell id="naMySs-0_EDx3IMrcmwN-18" value="" style="shape=flexArrow;endArrow=classic;html=1;rounded=0;exitX=0.398;exitY=0.998;exitDx=0;exitDy=0;exitPerimeter=0;" parent="1" edge="1">
          <mxGeometry width="50" height="50" relative="1" as="geometry">
            <mxPoint x="363.5999999999999" y="280.16" as="sourcePoint" />
            <mxPoint x="364" y="340.16" as="targetPoint" />
          </mxGeometry>
        </mxCell>
        <mxCell id="naMySs-0_EDx3IMrcmwN-19" value="" style="shape=flexArrow;endArrow=classic;html=1;rounded=0;exitX=0.398;exitY=0.998;exitDx=0;exitDy=0;exitPerimeter=0;" parent="1" edge="1">
          <mxGeometry width="50" height="50" relative="1" as="geometry">
            <mxPoint x="421.7599999999999" y="279.99999999999994" as="sourcePoint" />
            <mxPoint x="422.15999999999997" y="340.16" as="targetPoint" />
          </mxGeometry>
        </mxCell>
        <mxCell id="naMySs-0_EDx3IMrcmwN-20" value="" style="shape=flexArrow;endArrow=classic;html=1;rounded=0;exitX=0.398;exitY=0.998;exitDx=0;exitDy=0;exitPerimeter=0;" parent="1" edge="1">
          <mxGeometry width="50" height="50" relative="1" as="geometry">
            <mxPoint x="541.55" y="279.99999999999994" as="sourcePoint" />
            <mxPoint x="542.45" y="340.16" as="targetPoint" />
          </mxGeometry>
        </mxCell>
        <mxCell id="naMySs-0_EDx3IMrcmwN-21" value="Destination Datsets" style="text;html=1;strokeColor=none;fillColor=none;align=center;verticalAlign=middle;whiteSpace=wrap;rounded=0;rotation=0;fontStyle=1;fontSize=20;" parent="1" vertex="1">
          <mxGeometry x="302" y="420.16" width="280" height="40" as="geometry" />
        </mxCell>
        <mxCell id="naMySs-0_EDx3IMrcmwN-22" value="" style="endArrow=none;html=1;strokeWidth=2;rounded=0;fontSize=12;exitX=1;exitY=1;exitDx=0;exitDy=0;strokeColor=#FF3333;" parent="1" source="naMySs-0_EDx3IMrcmwN-4" edge="1">
          <mxGeometry width="50" height="50" relative="1" as="geometry">
            <mxPoint x="652" y="360.16" as="sourcePoint" />
            <mxPoint x="652" y="320.16" as="targetPoint" />
          </mxGeometry>
        </mxCell>
        <mxCell id="naMySs-0_EDx3IMrcmwN-23" value="" style="endArrow=classic;startArrow=classic;html=1;rounded=0;fontSize=12;strokeWidth=1;fontColor=#FF3333;labelBackgroundColor=#FF3333;strokeColor=#FF3333;" parent="1" edge="1">
          <mxGeometry width="50" height="50" relative="1" as="geometry">
            <mxPoint x="632" y="330.16" as="sourcePoint" />
            <mxPoint x="672" y="330.16" as="targetPoint" />
          </mxGeometry>
        </mxCell>
        <mxCell id="naMySs-0_EDx3IMrcmwN-24" value="&lt;span class=&quot;Grek&quot; lang=&quot;und-Grek&quot;&gt;Î¸&lt;/span&gt;" style="text;html=1;strokeColor=none;fillColor=none;align=center;verticalAlign=middle;whiteSpace=wrap;rounded=0;fontSize=16;fontStyle=0;fontColor=#FF3333;" parent="1" vertex="1">
          <mxGeometry x="622" y="290.16" width="60" height="30" as="geometry" />
        </mxCell>
      </root>
    </mxGraphModel>
  </diagram>
  <diagram id="Sxam6_9mDCfXyxYa0mCx" name="Page-3">
    <mxGraphModel dx="1186" dy="762" grid="1" gridSize="10" guides="1" tooltips="1" connect="1" arrows="1" fold="1" page="1" pageScale="1" pageWidth="827" pageHeight="1169" math="0" shadow="0">
      <root>
        <mxCell id="0" />
        <mxCell id="1" parent="0" />
        <mxCell id="ck5d0A5CJOaqAvqNsiEB-1" value="&lt;b style=&quot;font-size: 16px;&quot;&gt;Real Apolloscape&lt;br&gt;&lt;/b&gt;" style="rounded=0;whiteSpace=wrap;html=1;fontSize=16;verticalAlign=top;" parent="1" vertex="1">
          <mxGeometry x="40" y="360" width="240" height="40" as="geometry" />
        </mxCell>
        <mxCell id="ck5d0A5CJOaqAvqNsiEB-2" value="Val" style="rounded=0;whiteSpace=wrap;html=1;fillColor=#f5f5f5;strokeColor=#666666;fontSize=16;fontStyle=1;fontColor=#333333;verticalAlign=bottom;" parent="1" vertex="1">
          <mxGeometry x="40" y="160" width="40" height="40" as="geometry" />
        </mxCell>
        <mxCell id="ck5d0A5CJOaqAvqNsiEB-4" value="&lt;div style=&quot;font-size: 16px;&quot;&gt;&lt;b style=&quot;font-size: 16px;&quot;&gt;Train&lt;/b&gt;&lt;/div&gt;" style="rounded=0;whiteSpace=wrap;html=1;fontSize=16;fillColor=#f5f5f5;fontColor=#333333;strokeColor=#666666;verticalAlign=bottom;" parent="1" vertex="1">
          <mxGeometry x="160" y="450" width="240" height="60" as="geometry" />
        </mxCell>
        <mxCell id="ck5d0A5CJOaqAvqNsiEB-5" value="0.5k" style="text;html=1;strokeColor=none;fillColor=none;align=center;verticalAlign=middle;whiteSpace=wrap;rounded=0;" parent="1" vertex="1">
          <mxGeometry x="40" y="160" width="40" height="20" as="geometry" />
        </mxCell>
        <mxCell id="ck5d0A5CJOaqAvqNsiEB-6" value="30k" style="text;html=1;strokeColor=none;fillColor=none;align=center;verticalAlign=middle;whiteSpace=wrap;rounded=0;" parent="1" vertex="1">
          <mxGeometry x="40" y="380" width="240" height="20" as="geometry" />
        </mxCell>
        <mxCell id="ck5d0A5CJOaqAvqNsiEB-9" value="&lt;b style=&quot;font-size: 16px;&quot;&gt;Test&lt;/b&gt;" style="rounded=0;whiteSpace=wrap;html=1;fillColor=#f5f5f5;strokeColor=#666666;fontSize=16;fontColor=#333333;verticalAlign=bottom;" parent="1" vertex="1">
          <mxGeometry x="80" y="160" width="240" height="40" as="geometry" />
        </mxCell>
        <mxCell id="ck5d0A5CJOaqAvqNsiEB-11" value="&lt;div&gt;Real&lt;/div&gt;" style="rounded=0;whiteSpace=wrap;html=1;strokeColor=default;fillColor=none;" parent="1" vertex="1">
          <mxGeometry x="160" y="450" width="120" height="20" as="geometry" />
        </mxCell>
        <mxCell id="ck5d0A5CJOaqAvqNsiEB-12" value="Generated" style="rounded=0;whiteSpace=wrap;html=1;strokeColor=default;fillColor=none;" parent="1" vertex="1">
          <mxGeometry x="280" y="450" width="120" height="20" as="geometry" />
        </mxCell>
        <mxCell id="ck5d0A5CJOaqAvqNsiEB-15" value="9k" style="text;html=1;strokeColor=none;fillColor=none;align=center;verticalAlign=middle;whiteSpace=wrap;rounded=0;fontColor=#FF3333;" parent="1" vertex="1">
          <mxGeometry x="279" y="470" width="123" height="20" as="geometry" />
        </mxCell>
        <mxCell id="ck5d0A5CJOaqAvqNsiEB-20" value="" style="shape=flexArrow;endArrow=classic;html=1;rounded=0;exitX=0.5;exitY=1;exitDx=0;exitDy=0;" parent="1" source="ck5d0A5CJOaqAvqNsiEB-28" edge="1">
          <mxGeometry width="50" height="50" relative="1" as="geometry">
            <mxPoint x="59.54999999999984" y="109.83999999999989" as="sourcePoint" />
            <mxPoint x="60" y="160" as="targetPoint" />
            <Array as="points">
              <mxPoint x="60" y="129.84" />
            </Array>
          </mxGeometry>
        </mxCell>
        <mxCell id="ck5d0A5CJOaqAvqNsiEB-22" value="" style="endArrow=none;html=1;strokeWidth=2;rounded=0;fontSize=12;exitX=0;exitY=1;exitDx=0;exitDy=0;strokeColor=#FF3333;" parent="1" source="ck5d0A5CJOaqAvqNsiEB-12" edge="1">
          <mxGeometry width="50" height="50" relative="1" as="geometry">
            <mxPoint x="283" y="450" as="sourcePoint" />
            <mxPoint x="280" y="430" as="targetPoint" />
          </mxGeometry>
        </mxCell>
        <mxCell id="ck5d0A5CJOaqAvqNsiEB-23" value="" style="endArrow=classic;startArrow=classic;html=1;rounded=0;fontSize=12;strokeWidth=1;fontColor=#FF3333;labelBackgroundColor=#FF3333;strokeColor=#FF3333;" parent="1" edge="1">
          <mxGeometry width="50" height="50" relative="1" as="geometry">
            <mxPoint x="260" y="440" as="sourcePoint" />
            <mxPoint x="300" y="440" as="targetPoint" />
          </mxGeometry>
        </mxCell>
        <mxCell id="ck5d0A5CJOaqAvqNsiEB-24" value="Âµ" style="text;html=1;strokeColor=none;fillColor=none;align=center;verticalAlign=middle;whiteSpace=wrap;rounded=0;fontSize=16;fontStyle=0;fontColor=#FF3333;" parent="1" vertex="1">
          <mxGeometry x="252" y="400" width="60" height="30" as="geometry" />
        </mxCell>
        <mxCell id="ck5d0A5CJOaqAvqNsiEB-25" value="Generated Apolloscape" style="rounded=0;whiteSpace=wrap;html=1;fontSize=16;fontStyle=1;verticalAlign=top;" parent="1" vertex="1">
          <mxGeometry x="280" y="360" width="240" height="40" as="geometry" />
        </mxCell>
        <mxCell id="ck5d0A5CJOaqAvqNsiEB-27" value="Cityscape" style="rounded=0;whiteSpace=wrap;html=1;fontSize=16;fontStyle=1;verticalAlign=top;" parent="1" vertex="1">
          <mxGeometry x="40" y="60" width="400" height="60" as="geometry" />
        </mxCell>
        <mxCell id="ck5d0A5CJOaqAvqNsiEB-26" value="30k" style="text;html=1;strokeColor=none;fillColor=none;align=center;verticalAlign=middle;whiteSpace=wrap;rounded=0;" parent="1" vertex="1">
          <mxGeometry x="280" y="380" width="240" height="20" as="geometry" />
        </mxCell>
        <mxCell id="ck5d0A5CJOaqAvqNsiEB-28" value="Val" style="rounded=0;whiteSpace=wrap;html=1;strokeColor=default;fillColor=none;" parent="1" vertex="1">
          <mxGeometry x="40" y="100" width="40" height="20" as="geometry" />
        </mxCell>
        <mxCell id="ck5d0A5CJOaqAvqNsiEB-30" value="Test" style="rounded=0;whiteSpace=wrap;html=1;strokeColor=default;fillColor=none;" parent="1" vertex="1">
          <mxGeometry x="320" y="100" width="120" height="20" as="geometry" />
        </mxCell>
        <mxCell id="ck5d0A5CJOaqAvqNsiEB-29" value="Train" style="rounded=0;whiteSpace=wrap;html=1;fillColor=default;" parent="1" vertex="1">
          <mxGeometry x="80" y="100" width="240" height="20" as="geometry" />
        </mxCell>
        <mxCell id="ck5d0A5CJOaqAvqNsiEB-31" value="9k" style="text;html=1;strokeColor=none;fillColor=none;align=center;verticalAlign=middle;whiteSpace=wrap;rounded=0;fontColor=#FF3333;" parent="1" vertex="1">
          <mxGeometry x="160" y="470" width="120" height="20" as="geometry" />
        </mxCell>
        <mxCell id="ck5d0A5CJOaqAvqNsiEB-32" value="0.5k" style="text;html=1;strokeColor=none;fillColor=none;align=center;verticalAlign=middle;whiteSpace=wrap;rounded=0;fontColor=#000000;" parent="1" vertex="1">
          <mxGeometry x="40" y="80" width="40" height="20" as="geometry" />
        </mxCell>
        <mxCell id="ck5d0A5CJOaqAvqNsiEB-33" value="3k" style="text;html=1;strokeColor=none;fillColor=none;align=center;verticalAlign=middle;whiteSpace=wrap;rounded=0;fontColor=#000000;" parent="1" vertex="1">
          <mxGeometry x="80" y="80" width="240" height="20" as="geometry" />
        </mxCell>
        <mxCell id="ck5d0A5CJOaqAvqNsiEB-34" value="1.5k" style="text;html=1;strokeColor=none;fillColor=none;align=center;verticalAlign=middle;whiteSpace=wrap;rounded=0;fontColor=#000000;" parent="1" vertex="1">
          <mxGeometry x="320" y="80" width="120" height="20" as="geometry" />
        </mxCell>
        <mxCell id="ck5d0A5CJOaqAvqNsiEB-35" value="3k" style="text;html=1;strokeColor=none;fillColor=none;align=center;verticalAlign=middle;whiteSpace=wrap;rounded=0;" parent="1" vertex="1">
          <mxGeometry x="80" y="160" width="240" height="20" as="geometry" />
        </mxCell>
        <mxCell id="ck5d0A5CJOaqAvqNsiEB-39" value="" style="shape=flexArrow;endArrow=classic;html=1;rounded=0;exitX=0.5;exitY=1;exitDx=0;exitDy=0;" parent="1" edge="1">
          <mxGeometry width="50" height="50" relative="1" as="geometry">
            <mxPoint x="199.91999999999996" y="120" as="sourcePoint" />
            <mxPoint x="199.91999999999996" y="160" as="targetPoint" />
            <Array as="points">
              <mxPoint x="199.91999999999996" y="129.84" />
            </Array>
          </mxGeometry>
        </mxCell>
        <mxCell id="ck5d0A5CJOaqAvqNsiEB-40" value="&lt;b style=&quot;font-size: 16px;&quot;&gt;Real Apolloscape&lt;br&gt;&lt;/b&gt;" style="rounded=0;whiteSpace=wrap;html=1;fontSize=16;verticalAlign=top;" parent="1" vertex="1">
          <mxGeometry x="40" y="560" width="240" height="40" as="geometry" />
        </mxCell>
        <mxCell id="ck5d0A5CJOaqAvqNsiEB-41" value="&lt;div style=&quot;font-size: 16px;&quot;&gt;&lt;b style=&quot;font-size: 16px;&quot;&gt;Train&lt;/b&gt;&lt;/div&gt;" style="rounded=0;whiteSpace=wrap;html=1;fontSize=16;fillColor=#f5f5f5;fontColor=#333333;strokeColor=#666666;verticalAlign=bottom;" parent="1" vertex="1">
          <mxGeometry x="240" y="650" width="160" height="60" as="geometry" />
        </mxCell>
        <mxCell id="ck5d0A5CJOaqAvqNsiEB-42" value="30k" style="text;html=1;strokeColor=none;fillColor=none;align=center;verticalAlign=middle;whiteSpace=wrap;rounded=0;" parent="1" vertex="1">
          <mxGeometry x="40" y="580" width="240" height="20" as="geometry" />
        </mxCell>
        <mxCell id="ck5d0A5CJOaqAvqNsiEB-43" value="&lt;div&gt;Real&lt;/div&gt;" style="rounded=0;whiteSpace=wrap;html=1;strokeColor=default;fillColor=none;" parent="1" vertex="1">
          <mxGeometry x="240" y="650" width="40" height="20" as="geometry" />
        </mxCell>
        <mxCell id="ck5d0A5CJOaqAvqNsiEB-44" value="Generated" style="rounded=0;whiteSpace=wrap;html=1;strokeColor=default;fillColor=none;" parent="1" vertex="1">
          <mxGeometry x="280" y="650" width="120" height="20" as="geometry" />
        </mxCell>
        <mxCell id="ck5d0A5CJOaqAvqNsiEB-45" value="8k" style="text;html=1;strokeColor=none;fillColor=none;align=center;verticalAlign=middle;whiteSpace=wrap;rounded=0;fontColor=#FF3333;" parent="1" vertex="1">
          <mxGeometry x="279" y="670" width="123" height="20" as="geometry" />
        </mxCell>
        <mxCell id="ck5d0A5CJOaqAvqNsiEB-46" value="" style="endArrow=none;html=1;strokeWidth=2;rounded=0;fontSize=12;exitX=1;exitY=1;exitDx=0;exitDy=0;strokeColor=#FF3333;" parent="1" source="ck5d0A5CJOaqAvqNsiEB-41" edge="1">
          <mxGeometry width="50" height="50" relative="1" as="geometry">
            <mxPoint x="400.0000000000001" y="670" as="sourcePoint" />
            <mxPoint x="400" y="630" as="targetPoint" />
          </mxGeometry>
        </mxCell>
        <mxCell id="ck5d0A5CJOaqAvqNsiEB-49" value="Generated Apolloscape" style="rounded=0;whiteSpace=wrap;html=1;fontSize=16;fontStyle=1;verticalAlign=top;" parent="1" vertex="1">
          <mxGeometry x="280" y="560" width="240" height="40" as="geometry" />
        </mxCell>
        <mxCell id="ck5d0A5CJOaqAvqNsiEB-50" value="30k" style="text;html=1;strokeColor=none;fillColor=none;align=center;verticalAlign=middle;whiteSpace=wrap;rounded=0;" parent="1" vertex="1">
          <mxGeometry x="280" y="580" width="240" height="20" as="geometry" />
        </mxCell>
        <mxCell id="ck5d0A5CJOaqAvqNsiEB-51" value="1k" style="text;html=1;strokeColor=none;fillColor=none;align=center;verticalAlign=middle;whiteSpace=wrap;rounded=0;fontColor=#000000;" parent="1" vertex="1">
          <mxGeometry x="240" y="670" width="40" height="20" as="geometry" />
        </mxCell>
        <mxCell id="uFB8-bL0-dbR-dxfOGyv-2" value="" style="endArrow=classic;startArrow=classic;html=1;rounded=0;fontSize=12;strokeWidth=1;fontColor=#FF3333;labelBackgroundColor=#FF3333;strokeColor=#FF3333;" parent="1" edge="1">
          <mxGeometry width="50" height="50" relative="1" as="geometry">
            <mxPoint x="380" y="640" as="sourcePoint" />
            <mxPoint x="420" y="640" as="targetPoint" />
          </mxGeometry>
        </mxCell>
        <mxCell id="uFB8-bL0-dbR-dxfOGyv-3" value="&lt;span class=&quot;Grek&quot; lang=&quot;und-Grek&quot;&gt;Î¸&lt;/span&gt;" style="text;html=1;strokeColor=none;fillColor=none;align=center;verticalAlign=middle;whiteSpace=wrap;rounded=0;fontSize=16;fontStyle=0;fontColor=#FF3333;" parent="1" vertex="1">
          <mxGeometry x="370" y="600" width="60" height="30" as="geometry" />
        </mxCell>
        <mxCell id="uFB8-bL0-dbR-dxfOGyv-4" value="" style="shape=flexArrow;endArrow=classic;html=1;rounded=0;exitX=0.5;exitY=1;exitDx=0;exitDy=0;entryX=0.5;entryY=0;entryDx=0;entryDy=0;" parent="1" target="ck5d0A5CJOaqAvqNsiEB-11" edge="1">
          <mxGeometry width="50" height="50" relative="1" as="geometry">
            <mxPoint x="219.80000000000007" y="400" as="sourcePoint" />
            <mxPoint x="219.80000000000007" y="440" as="targetPoint" />
            <Array as="points">
              <mxPoint x="219.79999999999995" y="409.84000000000003" />
            </Array>
          </mxGeometry>
        </mxCell>
        <mxCell id="uFB8-bL0-dbR-dxfOGyv-5" value="" style="shape=flexArrow;endArrow=classic;html=1;rounded=0;exitX=0.5;exitY=1;exitDx=0;exitDy=0;entryX=0.5;entryY=0;entryDx=0;entryDy=0;" parent="1" edge="1">
          <mxGeometry width="50" height="50" relative="1" as="geometry">
            <mxPoint x="339.8000000000002" y="400" as="sourcePoint" />
            <mxPoint x="340" y="450" as="targetPoint" />
            <Array as="points">
              <mxPoint x="339.79999999999995" y="409.84000000000003" />
            </Array>
          </mxGeometry>
        </mxCell>
        <mxCell id="uFB8-bL0-dbR-dxfOGyv-6" value="" style="shape=flexArrow;endArrow=classic;html=1;rounded=0;exitX=0.5;exitY=1;exitDx=0;exitDy=0;entryX=0.5;entryY=0;entryDx=0;entryDy=0;" parent="1" edge="1">
          <mxGeometry width="50" height="50" relative="1" as="geometry">
            <mxPoint x="259.8000000000002" y="600" as="sourcePoint" />
            <mxPoint x="260" y="650" as="targetPoint" />
            <Array as="points">
              <mxPoint x="259.79999999999995" y="609.84" />
            </Array>
          </mxGeometry>
        </mxCell>
        <mxCell id="uFB8-bL0-dbR-dxfOGyv-7" value="" style="shape=flexArrow;endArrow=classic;html=1;rounded=0;exitX=0.5;exitY=1;exitDx=0;exitDy=0;entryX=0.5;entryY=0;entryDx=0;entryDy=0;" parent="1" edge="1">
          <mxGeometry width="50" height="50" relative="1" as="geometry">
            <mxPoint x="340.3000000000002" y="600" as="sourcePoint" />
            <mxPoint x="340.5" y="650" as="targetPoint" />
            <Array as="points">
              <mxPoint x="340.29999999999995" y="609.84" />
            </Array>
          </mxGeometry>
        </mxCell>
      </root>
    </mxGraphModel>
  </diagram>
  <diagram id="G_6RuyPmORZFNMZxgBWp" name="Page-4">
    <mxGraphModel dx="818" dy="526" grid="1" gridSize="10" guides="1" tooltips="1" connect="1" arrows="1" fold="1" page="1" pageScale="1" pageWidth="827" pageHeight="1169" math="0" shadow="0">
      <root>
        <mxCell id="0" />
        <mxCell id="1" parent="0" />
        <mxCell id="GaBGJICAfNew4UjpheJe-3" value="" style="shape=trapezoid;perimeter=trapezoidPerimeter;whiteSpace=wrap;html=1;fixedSize=1;strokeColor=default;rotation=90;horizontal=0;fillColor=#dae8fc;" vertex="1" parent="1">
          <mxGeometry x="540.71" y="190" width="120" height="160" as="geometry" />
        </mxCell>
        <mxCell id="GaBGJICAfNew4UjpheJe-6" value="Discriminator &lt;i&gt;D&lt;/i&gt;" style="text;html=1;strokeColor=none;fillColor=none;align=center;verticalAlign=middle;whiteSpace=wrap;rounded=0;" vertex="1" parent="1">
          <mxGeometry x="520.71" y="250" width="160" height="40" as="geometry" />
        </mxCell>
        <mxCell id="GaBGJICAfNew4UjpheJe-7" value="" style="shape=trapezoid;perimeter=trapezoidPerimeter;whiteSpace=wrap;html=1;fixedSize=1;strokeColor=default;rotation=-90;horizontal=0;fillColor=#d5e8d4;" vertex="1" parent="1">
          <mxGeometry x="140" y="260" width="120" height="160" as="geometry" />
        </mxCell>
        <mxCell id="GaBGJICAfNew4UjpheJe-16" style="edgeStyle=orthogonalEdgeStyle;rounded=0;orthogonalLoop=1;jettySize=auto;html=1;exitX=1;exitY=0.5;exitDx=0;exitDy=0;entryX=0;entryY=0.5;entryDx=0;entryDy=0;" edge="1" parent="1" source="GaBGJICAfNew4UjpheJe-8" target="GaBGJICAfNew4UjpheJe-14">
          <mxGeometry relative="1" as="geometry" />
        </mxCell>
        <mxCell id="GaBGJICAfNew4UjpheJe-8" value="Generator &lt;i&gt;G&lt;/i&gt;" style="text;html=1;strokeColor=none;fillColor=none;align=center;verticalAlign=middle;whiteSpace=wrap;rounded=0;" vertex="1" parent="1">
          <mxGeometry x="119.99999999999999" y="320" width="160" height="40" as="geometry" />
        </mxCell>
        <mxCell id="GaBGJICAfNew4UjpheJe-11" style="edgeStyle=orthogonalEdgeStyle;rounded=0;orthogonalLoop=1;jettySize=auto;html=1;exitX=1;exitY=0.5;exitDx=0;exitDy=0;entryX=0;entryY=0.5;entryDx=0;entryDy=0;" edge="1" parent="1" source="GaBGJICAfNew4UjpheJe-10" target="GaBGJICAfNew4UjpheJe-8">
          <mxGeometry relative="1" as="geometry" />
        </mxCell>
        <mxCell id="GaBGJICAfNew4UjpheJe-10" value="Latent &lt;i&gt;z&lt;/i&gt;" style="rounded=0;whiteSpace=wrap;html=1;strokeColor=default;" vertex="1" parent="1">
          <mxGeometry x="60" y="300" width="40" height="80" as="geometry" />
        </mxCell>
        <mxCell id="GaBGJICAfNew4UjpheJe-17" style="edgeStyle=orthogonalEdgeStyle;rounded=0;orthogonalLoop=1;jettySize=auto;html=1;exitX=1;exitY=0.5;exitDx=0;exitDy=0;exitPerimeter=0;entryX=0;entryY=0.5;entryDx=0;entryDy=0;" edge="1" parent="1" source="GaBGJICAfNew4UjpheJe-12" target="GaBGJICAfNew4UjpheJe-15">
          <mxGeometry relative="1" as="geometry" />
        </mxCell>
        <mxCell id="GaBGJICAfNew4UjpheJe-12" value="Train Dataset" style="shape=cylinder3;whiteSpace=wrap;html=1;boundedLbl=1;backgroundOutline=1;size=15;strokeColor=default;" vertex="1" parent="1">
          <mxGeometry x="209.99999999999997" y="140" width="70" height="120" as="geometry" />
        </mxCell>
        <mxCell id="GaBGJICAfNew4UjpheJe-19" style="edgeStyle=orthogonalEdgeStyle;rounded=0;orthogonalLoop=1;jettySize=auto;html=1;exitX=1;exitY=0.5;exitDx=0;exitDy=0;endArrow=classic;endFill=1;startArrow=none;startFill=0;" edge="1" parent="1" source="GaBGJICAfNew4UjpheJe-14">
          <mxGeometry relative="1" as="geometry">
            <mxPoint x="480.71" y="300" as="targetPoint" />
          </mxGeometry>
        </mxCell>
        <mxCell id="GaBGJICAfNew4UjpheJe-14" value="" style="shape=image;verticalLabelPosition=bottom;labelBackgroundColor=default;verticalAlign=top;aspect=fixed;imageAspect=0;image=data:image/jpeg,/9j/4AAQSkZJRgABAQAASABIAAD/4QBYRXhpZgAATU0AKgAAAAgAAgESAAMAAAABAAEAAIdpAAQAAAABAAAAJgAAAAAAA6ABAAMAAAABAAEAAKACAAQAAAABAAABAKADAAQAAAABAAABAQAAAAD/7QA4UGhvdG9zaG9wIDMuMAA4QklNBAQAAAAAAAA4QklNBCUAAAAAABDUHYzZjwCyBOmACZjs+EJ+/8AAEQgBAQEAAwEiAAIRAQMRAf/EAB8AAAEFAQEBAQEBAAAAAAAAAAABAgMEBQYHCAkKC//EALUQAAIBAwMCBAMFBQQEAAABfQECAwAEEQUSITFBBhNRYQcicRQygZGhCCNCscEVUtHwJDNicoIJChYXGBkaJSYnKCkqNDU2Nzg5OkNERUZHSElKU1RVVldYWVpjZGVmZ2hpanN0dXZ3eHl6g4SFhoeIiYqSk5SVlpeYmZqio6Slpqeoqaqys7S1tre4ubrCw8TFxsfIycrS09TV1tfY2drh4uPk5ebn6Onq8fLz9PX29/j5+v/EAB8BAAMBAQEBAQEBAQEAAAAAAAABAgMEBQYHCAkKC//EALURAAIBAgQEAwQHBQQEAAECdwABAgMRBAUhMQYSQVEHYXETIjKBCBRCkaGxwQkjM1LwFWJy0QoWJDThJfEXGBkaJicoKSo1Njc4OTpDREVGR0hJSlNUVVZXWFlaY2RlZmdoaWpzdHV2d3h5eoKDhIWGh4iJipKTlJWWl5iZmqKjpKWmp6ipqrKztLW2t7i5usLDxMXGx8jJytLT1NXW19jZ2uLj5OXm5+jp6vLz9PX29/j5+v/bAEMACAYGBwYFCAcHBwkJCAoMFA0MCwsMGRITDxQdGh8eHRocHCAkLicgIiwjHBwoNyksMDE0NDQfJzk9ODI8LjM0Mv/bAEMBCQkJDAsMGA0NGDIhHCEyMjIyMjIyMjIyMjIyMjIyMjIyMjIyMjIyMjIyMjIyMjIyMjIyMjIyMjIyMjIyMjIyMv/dAAQAEP/aAAwDAQACEQMRAD8A9PtPh74R8nDeHNKc8gMbNM/y5/Kpl+HXg/b/AMizpP8A4Bp/UV0Vt/x7R9/lFTCmTc5k/Dvwcf8AmWNJHP8Az5x/4U7/AIV94Pz/AMivo4/7co/8K6UUUDOYPw78HEf8izpH4Wcf+FO/4V74OwP+KX0j/wAA4/8ACulopAc0Ph74PAIHhnSORj/jyj/+Job4e+D2XH/CM6Rz6WUY/p7V0tFAHND4feD1bP8AwjGkHnODZxn+lN/4V34OyWPhjSTnt9jjGPwxXT0c0DOa/wCFfeDzHs/4RjR/r9hjz/Km/wDCu/B/H/FM6TwP+fOP/CumzzQD2oA5k/Drwec/8U1pIz/05x/4Uh+HPg4/8y1pQ/7c4/8ACumLdu9BagDlx8OfB46+G9LP/bnH/hS/8K58H5/5FrSv/AOP/wCJrp8nGTSFuMilcRzH/CuPCHGPDmlD/tzj/wAKQ/DjweSceG9Kwcf8uqcfpXUEkDORSb+c8YouBy5+HHhELt/4RzScZ6/Y0z/Kj/hXPhIN/wAi7pWM5x9ij/w6V1G7PT+dIWI4HWi4HK/8K28JHn/hH9L555tI+v5UN8NvCROf+Ed0tenAtI/X6V1e6kD5/CmByp+HHhEqufDmljpz9kT0+lNPw28JEf8AIv6YOOCLRP8ACutDc5pm4k8YoA5R/hx4TIUDw7pgAxz9kj5/Smt8OPCaszJ4f07IGcfZI8fyrqi/ysynp60wyRjGJM5PYFuxI4/D9KAObPw58J7st4d00DZyBZx9fbimP8O/CK/6zQtLQnv9ijxjqP4fY1b17xGNIiL/AClsHB3A9/8A61eSa/8AEO+aWQR3EnPYHHHX8qAPRJvCHgSD5X0bSEb7yeZbx4PUDnGTz27471Tk0b4biYL/AGXpJJcFdlpGMdBjGPUdCO/Qd/EptY1K8dV86TBGAucmoTDfuC5mkB54JJ4HX+lOwWZ7xD4Z8AXUTGPSdHBVs/6iJTn6Hnrn1AxxjvmePPBnhux8HandW2jabDNHaTSJIlvGjA4OCAo9enXr2rx621nUdLmVxOWGeRknnuentXX6j4nl1PwdfxsSw+xzLljkfd7cf5/OnYLH/9D3i1H+jp06VL9KZBxCoPoKkpk9BBS0UUhhRRRQAUUUHGOaAE96PxoGO3SgccUDEzxyKRsZz/Kh+Oe9KemTgUgGkcZ4Pp9KM4PXincH396bjgnFIBCuBw3BoP0FBOT2H1o9uMUABGT0P500/j09aeR8uB+tN4Jxk+1ACbeTzk56UN24HpTiCRk5P401gO/H0oAQ5z1BoYnGNw+lBAxnkcYBpvQ8/TBqgFzxyDTcBU7/AF9KeBhQOvvUZGB170AMJGO3+HH/AOrrWfqcxihaQBRsHBbGAen6cnj1q+chyCVI6MpPUHrWB4nmMGmSKpIQsVIKrjkcYPPbHNAjyrxrrSgNbxEgjgtu/r34xXnY3XMu4njnrWl4hu2u9Qf5t25if1+tVLeP5SADn2pFJFm3IhKlepI5Pt/n9KsRSxgqsgbb8owpwT0456Zxmq2MfzpjN9apALf7ZIBMQiMFwPk+8Og5/Cs+K7zp99Cz5P2aTA/4CasyuXBVueMYIzWRK7I9wM/8sJBj/gJ7VXQnqf/R96hXbCo9qk61HDkxKSAOO1SDpTYgxRRRSAM0ZoooAKKKQ0AGaD+NGOKQemBigYcYzSA9zRnHpik5+vvmkApHG2k9/SjPO7NNzngj60DHZHOOvemjnH55pTjjGPwobAHGM0gADJzk896DyTyKAecA8e1Jjk8/nQAnQAcUg74b3OadkY6YxSE4555oEJ0pCB2PBpMYJHr6UuAcA5qgFHPBB4FMIHGMA9qk6HDH86b94cDGO4oAryExvuC5PVQOefp1rjPiDMU0xJFXfHs+dguCP84NdnJsZCCAdvzHOf6V5T8VdQkEcauwyV5C/d9fzwR2oEeQSMJrxiBu+vWrScL1/KqNt8zZz15q92pFsQ9z2qJjUhP0qNsEHO706U7kkRJ2kjOV5461lXXE0ylSCsMgJPf5TWlJkZyMMOpx+dZt0VMk2P8Ani/P/ATVp6CP/9L3qEgwrjpipKjhH7lcDAx09KfmgEHWlApOtBPtmkICcd8UtN6GlP8AOmAtBpB79KX+VADSP85oxxxTqQ4HXrQMaMd+fWmjBJGePrTicikxnAzQAhPGc8UHB6cGlx2HPrSLkjI/CkMCcHgHFJuweoyeh7ijPPH4038QfagBSTngAGl296Q447cdDSdQOePfmkA4e56e3WjqTkfpRzgAE4x6UHIGMd/WqEHBOeBTQcd+KGOOc9+TnpTQdxAVQSaAHHj8qjc8ehxjNIX6gnn3ppBdlPBB4OD2piGySiNlYsVUE7xgnIx2GK+ffiXqPnak1uPkCkKVAHbIyfeva/Emqpp+kSuJERlIOG6+o4HTGCce3vXzTrt69/rMrnJJc9DnnNA0Q2oX930x9f1qbrxUUYITjpUnQBj06UgYHk55pjY2g87hS5zUbAkHFIRCw+Q8naOenSs25OWfr/qpOf8AgNab47HJ9KzrjG+bHA8h+P8AgJq1sNn/0/eoM+Su7k4p+ajgGIV+lOJxnjigQHB6df50gPGf6Uh6ZB470LjqOMfrSAdkY5p3bjpTM807HtmmAvagUhNKPpjigA6kikxnrS5waDzz6UDE7/0pMfn9KXqetNJx/hSGByBnv9KaeRjODS9PX8qOnABoAQ8e/wDWk5ZcDJ54JoO3fgHP4U3cV453fSgBTz16ZwfrSAsuc5xnGaCxPB4+lJ3OQaAHnqMdvamMxzgNz6YoZjszyBjriopJNkYJGdxwCGH9fxpgOyxOORk7SCOmaZJLDDnzJgDkAnOPm7/zFch4s8dW2jq8SmMsCQV3HOR67TnnI6GvItW+IupX1yTC7qhYbEVj8vpjJPOKaEfQc+sWSx7mmjXBxncMZ7Edz+FZd94usIkfZKjoMKMtyfrkcDpyfX6V86TeJNWfcxlIJY5ZT16fhj3+tUZdZ1CUYJIz1x1P49qdhWO78b+MheM6I29mXk9e3bnpXncOZG8xuQfUcmoWEs0m6TufXNXYEAGM4FFi0iXJ4ySe2TRnGKYxyeBxQDkEA8dxSaJZLnHIOKY2ASuCCBjrQpG7aSFHq1NcnBzuB6cikwIZFJyOpx0FZ1zgtIBk/un5/wCAmtCTnHXHY9SKzrn78vU/un/9BNUtgZ//1PeLf/j2T/dFObpkfzpIDmBOc8UMc45xzQShvOc4OPrRk7u1NyR09aMrkc5FAyTnuMZ96UYz1z7VHySc5FKrZY8GgCTIOOOfSj2HWm9e3SjP+cZoAcOmKXvTRnHcjtR2wAM0hi5yN1Ix5zyfpSHrk/jSE+4I/pQMDj0J460biAOR0o9xnHSmnO4+w7imAZ5yeR2NMLblPPf0pdvHCn+VNJGwHJzn06UABIGKHbAAySemKaTkk4z7ijPQ56ehoAa7YdfXI4659sVz3ivxCujaW0sU7i4CgKSMZ9x+QroCXY/Lk84xux/npXi3xY1jdcNZxs2VOMFhgHvwOv1/+vQI8+1O/udc1CWaWRmJYkt1x3NS20cESFjGuMY2h1B+vt3qlbZhj3ozBiTgjOD/AJ4pskpIOTmmU0aRurdLbYindg47EHjHI69v8KqSSxkbUAVeobnPHSqLS800Tc1aSFYnKIpwuSM9Sev+cUEgDvkcVEJc4HAoBBOM0wHse+4E4pUPIBOM9cVGHx379qcMdhznJINQwJAGZHYZwDjP1/8A1U128wMTnkA+xpRncW3KCoyBnr2/rTdh6kEepxwOaQEc2CeABk5rOuMFnIAA8l//AEE1oOc8kceo71n3P+slODjypMc/7JqkB//V93tjm2T6daDnccGmWZxaxg8fLTnOcY5HcUxDSQTnHGPWgnByw7fpSA5GRk54prE8Y6+lFhDv91uPr707KjB7/X3pmRg5bg9qXOWO3cB3z0oAlyqg4OBQCCME49DUKnjtnpmn7vXbikNDyVJPr6+tAORjHT2pmTkAjOOlGSMn9PTmgY8HHGeB3xQCGzjJpmQ2Bu/X3o3Dn5sYoAVvu9cU3cM4oOeu0Z+99KaSp+YYyeQelAATyQMcelMJyMBue9KWycH6k9B+FNZk2BfxOe1MAJ25H40Eh+OeRg8U3dk5UADHWkbaPlYjBHU0DQySXZHLKj7MJkdCG7Yx9cV81+NbwXuvSkZCgg4PJ6Af0r6B12aODSbr59wMZCknaM9wD35xxXzNqE4udUkc92yOMUDiIx+Xnknqfeqz9Pb1qw3AAqBwMHNAMgc5YnAA9qjLnI5+mae44NRtVJgPU9znBP0FSD9KhX/PFTDJFMQ7PbrSjnHB45poHfBIpyMQw2nnI6ihgSou8HMm1RyCfqKSQZlY5XJO7H17UxeQoLHIPHPGcUp4VTkHPXAyc9P61IxknzHoAcetZkx/eS46eU//AKCa1JWJY5AU4xgDA44rLmxvm9fKf/0E0+gj/9b2uylElupjK4AHA6kcVI0y56jv9evpXndv8RrTTIUjuNqoIyEA657EjJ461o2PxH0LUGXy5ljZuDGxHHJOc+nP6e9UJHabhjt/SkLHv979MVQiuknfbBJG+eQQ3BH4jn/PpVpmKvlgQM98j9aLgSq7Nx146U8tktxznnIziqwk+YYA6/SnjLZy3BOM0CsSkgrgmpCQpU4BxjNQ7juPqMD2o3EMRgD29KVhj1OASc47elKMdyMjng9abuI+ZWwfekA5z269aLALkYz074pwwDjcB3zg1Ge+Dx6etKQBjnn1osAu7HIOPbmm7g24/KD05poYqR0GeOlG/nk5HuadgBmwApA+tIeOoz7g0mScZO4HoD2pAB0wTz1osAvOSGOD9KidyFznA5x069uvvT2OGJyKhkkPX5dv8RPQD/P/AOugpHIfEPUEt9BdS5DnHzFTtPHqelfP8EhklZiAeScGvRvixrkcs5s4lRWDEYXPHOK82thsQHNSykTsevOahYk9aexy2MjNRscNjjPSglkbAtxUR61K3P1qI8nNNAKB0qVfSoxjNBcA4q0BKTnJA5zRyAD0BpgbPr+dOVsZ6Z6dKGA4E9APxxS8nLEHknHIFREjA45FL2znJ7DFSMVm5ABwP97rWc4bzZcZH7mQ+n8Jq+zdP8KzZCTPN/1yf2/hNNCZ/9fzKRn1LUGEkrKh4zyfft9KuSaBLHC08U+PmYhweDyBjPQ/NnpWXbXRtbkyr/rFY7TjoeRnPQ1JPqju8jKoUPgnr0H04xx+gqtQsbFn4o13Q5lAuWkiIzgMDwDyP516RoXxjhuo47PVImjlX5dwBH+eQPwz9R5LBqxDv9ojSdGI3gjkfT0+9VW48m4YGMAbsE5ID7sY6joKdl1Cx9VWesadqNus1ndRsrBc9DgH/DH8vx0C7IzK46Hk8YB4/D/9VfJFtqOp6Lc/6HevlXwACQM8/wCf6V2mk/GTV9P2pfRtMAu0nOD19qLCPoQSDgEfp1z+lL5247tp56Z7+v4c15JZ/G+wMaiSzxLu9OD3xzmrJ+NGksqjyjwDt2jHXp69/wCf4UajPUxOM5GB1+vTtS+cpbIyOO59q8nb436bH/y7szgjBZRhRyOcY9R/npGPjbpzS5a3kZc5w4Hp7fT8qLMZ66soxnKlep4zilzhc4PBwfrXm1t8YtEmcl43C9RuGCOOxzXS6f4u0O/kCxXkYLfwFwMDjPPHPPA//VQI6TduJ6DvQX4KkZPUc1Thljl8vZPG5blRuHIPTPPfI/OpGLH5tpVSxxnj/PUUAS5K4HrzSZGAOepypqFZg5K7FLepNNCySgEL3ySeAP8AP+NAWHu/DH0/QdP5msrxHrEWgaTNNOGIZcAM4U5PTgdQcGptT1Oz0eCRrl42IAzggEdhj346k8DB9a+fvHvjWXW76SKFk8sZGUXAI6cDt9P8alsZga5q8mu6zJcMeCeABwB6CmpwnI6e1UrdNoBP+f8AOKtAknqRSKZIW4Hf9KR84JJKrjuaNxwAB83Q55zQzMFyFUgkMMjvntSJI2wScdCemaiP3s/pUjtuyeSO3GMD0qPjoG5poYEkZ5qBnOalzlT61XYc81aYE6NnrUpPy1DCPapWyKYg3YJHb0pxkJOSTnpnsajyME5OewxkUZ4yT9CKljFY/ITjPaqLZMk2MHELkgDpxVw/d75rP/5bzc/8sX/9BNPoI//Q8fc5dznHzHioskjp+VTEZZl9D61EUzk8HnpVj6DQxByGIxRuO3v7mn+X8oY5GTwaaU3MT1PqetCAkFzIuMkNj3qQ3RdWVwGD9fyI/rVRkNAB9ce9MC0DAVwYvTA7dv8ACl/0f5R5WCCc7e/XtVbBHuPUUoz2pjLaPaqfmiB4GNjYA7c+9OhlgMQWVF4O4ZGew4/SqY6AEnHUA9qcF+XPOQecUAWtttLG26M/Pnbhl3A+hOOB7n096hEU0I3w3mGU42rnn3Gf85xTEB5p6qx6Z69qYGpY+MNf0pVAupGjzkKzntz0/wA967PS/jTfJ5aXke8gg4JAX6n0NebyA45x1/En0qtNGrYyo46Y9KliR7nB8XLOZcEbdzZx6c88f5/WnX3xhiEREJy+d3msOQRkjgfVa8E2FSSDj2pec8k/jSaRVkdZ4j8b32sfIZTtxgAYA/KuahTe29uSTmokUcEH61bhwAMCpC6RZXgY5xUyIWUkBipGDxnFMTBxyOOanRAT8ud3YA8/UflUsm4qxv8Af2swKk5wR29RSOpMu15AFPJ2kED8jU6qv3W4YfeOMq3I7446/wAqcwCIsUkeQCGIYjuMHnn0XGKQGcepDEcdaY5GcZODzVh2YjIyO+COeffvVcg4J5+o7UDG9fpTCmTT6UVaAVBgU1jmnk8Dio2Pt+VMQKRk5PbpmgZ6kfpTOvrmlxxxQMVumaolv38x9Yn/APQTVzqpH4gVUzmWYHtDIce+00dBH//R8iK/vnB65p6wkgnBIp9zHsnYYJ570qEkDHfitQYixDgMWUnA6cUjxKQHCgZHr7mrccbqGKKSpGGznj3/ADxSrYz7V+RmLchcdRzz/Oiwrmf5IA9/pTfKBOO9XvsbBAzbtuP7tM8h9rMMYGMnFMLlX7Odu7+HpSiIEe1TtEV5JHqMjP4Uvl7m4GPXHSgLkKxDPT6UoVR25q7DaNMSn8WMAZI/l/nmrcOkTSHCrl8njj2/H0HNAXMrCkZxSBM56fSulg0JMuHRuDtX3PHA9+gpr6bGoOTgL1yv1/WgLnMyKTkgY471UcDgd/et27S3iXiThzwT1/Edq5+4mGdgAJz2oHcQsfm2nAPBx3GRTDIMkDAAJAFM2OeoIan+Q+0na2eoOeMd6LDuPQhuOtW4ozlRyD6YrNMciDOPcYFSRXjRH5gcfU1DQrmskb4UYxx34/WpuQobBwvbrn8agt76GRvmCr83XNWfMSQYLcY7ng1DQDzK0cZj5G0gEHnJH4euf0pSxbjALHkhckc9ePX+uars69TtHbGKDIFOFC4xSGSM5bJycfgf6VAcg7lJ+tHmk+vA6+lMLjPXNAwIOfmyfekwWOOQPrQCCaXjggYFUkAH5lXjoPX3NRn/ADzUvVQCeB0ppx1HamAzGcYJwKULuHQcUuc96cAp68cdRQBEQNuetURg3E208eTJ/wCgmtGUELyMcdfWs2L5pZ2z/wAsnHT/AGTQI//S851GEGViwwPQdM1HYxo0gUMPfnHt1/GmavckSlFB69fWshftQYlM8npit0iGz0GyitVxlxgsSXJ4x1P8vXk1PcTaXbsmHChAdyjIJfByM45/Qdce3Bo+pMAQz4PGQe2KWOwvbtgDJkHj5nA9PX/PFUoE3Ni91izTAXB74PJ5/HmsSfWI3Y7VIGf88VZi0SFoz5srK2P4geTjI5HTJ9fXtzUraZaKQDj5VHTv6nr7n/61PlQXMVtUJIAU09dWkjIKIQR3FbIsLfaPlDZY8kYxx/nvTjp9mGz5e4HjAOO3XPrnHeiw7mZFr2CdyZJ5HfuD1+gq4nifKFWXI9h7k/1NS/2ZAW+XC8c578fzzUT6Xbs/A2qRz/Siw7kjeLGYZGSxHpnp0/SqV14inucFfMPGCWbNWBpkAUgjGPQDJqQWEO05DMccAcfnmlZDMJ2uLliTnHWrlvpUgUOVyMZznIH146VrLEqPmPIHbgcil2lTkYB9aAK0dlHgghCzNnjj8Aenf9KnEUe0YPJHU85z1598/pUpU9SOT3ppX3zSAha1jmP7zjjd2ABwaq3Okoy53AnBJHIxz2rRYEkHjjFIc9CTj37ZqGgOck06RDvVj6/nUQFzCG5bHfmulKAn7oAHFQyWytnK/Me9KwzEF1ISMggAYxUwmYjnr9KumxDc9aaLPGcA0rDuVgSef608A9SCR7VY+zjA47U5YcHIzgdT2o5R3IADjB607awPQ/Sptg9h7CkwPSiwEW09AuTTGbrkkHPIqxtHpTHiwMZ+lOwFXdz1p6Oc0jxEHt+FIF496LAOmf8Adnjk96qW/wB+c8H9zIOf901LNnac1Ba/8vGOf3Enb/ZNJoD/0/L2ge6vmVVLAE9PT/P861FVbVwVVXkJ+bnKg4z6Dvj8qpRL/pDNnHzVazljzmulIyZKZ1aRn8tAvB2genb9DSNK7BlIyM4A44Hpn8BTVXrTwtaKxJEQzAZOe+fU+v6UoTOKmEdOEeKLiuV/L59/XFKI+uRk/SrGyjbxSbHchWHd91SSBnj0pNh9M1OFpNvOfTvU3LRDs9qb5dWCDn8KTaOKlsZBtA/Ck2jNTEc9KbtznHX6VLYEJHWjHFSEev5EU0jjtSuMYeB14oI6M2D9KXHbNN5HGaVwE7kYpCc8UuT60hHcUxjT6YwabweOM+tPwetNNAEbD1xgd6aVwcHANONMbpTGJjGcFT74phz3/lTjSHHagAPPt/WkoyB1oJ4oAafY803aBxjj6U/vzj86aM9M4B4xSGiCaMFT0xVGAAPOOf8AUyf+gmtNgTkA8Cs9FPnzkE/6mTkf7poYmf/U84iH71vqasAHqOvrUMJxM49SRirewhiCMHNdSMmKowMZyBTwKVRx3qRR7D0pkCAU7HHOfSlBCkjjgY6Ume3P5UgDAwKAM9eKMjPWkHIxmgYoUbiM9s5ph570tB6dD+dSWhpHak6DGM08r9PzoxxjnBqGwIyuOKbjnNTbO+RmjZxmlcZXIOc4pu0n0FWvLz1OPemmMDIAz70guVducnb07YppQqf881Z8rqePxOKbs4Pv1oQyqRwMZz3pOn5Y6VPs29M/WmFQBnjPpVDIQMUhHNS7cUwrQBE3J70046HHFSsny5JH0HembQTkYoAiI/L+VNI44/KpCvP/ANekxQMYRx0ppHHHNPxTWFDEMOc9aa31p5HFNK5/wqRjOoxgVT7yj/plJgj/AHTVwggHHX0qq+BJNg7h5L/+gmmB/9XzwJsuW+tXE6f0p9zakSlugJp0MZBBHB9O9diRixO1PVCcY59qtRWu49Tuz6Vfi00+Xv24XPJxTJMlYyVIK85/KneQ5OOtby6chJAIVcAnn1P+eKkW1iRZcrgj7oYdDnAz68A/jSC5gC1b8acLQkgHjJ610DQRLHtcEnrjaOn9OP6VUkKhVOVPAOD3/P8Az1qGFzL+yMAMrw4yPcf5FN8j1Xg81ekuY+3ygdgR+n+f51Ve6QZyOfrUMdyAwnAHfp0o8rHODjOPWlluVJJVhtGcfTJqH7SD6Uh3JvLHGcZz0x0pSnqOagFwuBjNPWcZ47d6VguS+WKaYxQJRt4zk8nNP30rBciMVMMVWT0GRgVGxB5zxTsO5WaLPHFRNHireAe9RHAGMU7DuVWXAxnrUbJg9OKtNj2qJsE4x+VOxVysV64HemlRt6nOanOfU+1MJwoGPqe5osBXKjPP86QqR1qYj0zTPbmgCIr2zim7OuRwBnNSngEcUhxgHIyew7UWGRFenuPxpu3njrU2AaCmADjGahoCqVOeev0qi25Xn4x+5f8A9BrTZRznpWfIAZJyAP8AUyf+gmmM/9bm7kKu7PXsarwzIG564qG/upTuTDFQcjPasvzZTkhWwT1Arri7GDR1lveKu0hUABGTzg896s/2kmzaGG3jg4POOmPy9/SuM+0zrxg5PGcUx57g9d3pV3FY7KTXFLhml3EcZPIwOg/z61Rk12MHK5XgghT68VzB81j3pPKc8EGh2Cxtz60XOS2ewAPFVZNWc/MSSc4BrO8hvRqcLdvQ5qG0OxM+oSOT81RG5du9O+zNwQn44pTbsOVVsfSodhkXmtnqakWRsjk0vk57GlELk4ANICRXOOD3qRZM1D5TKeVNLg9lNIC0JfeniX3qkN3oac24cAHNAWL3nDsRR5w9aoEv0w2aQl84waB2LrTgCozMKpkv6Gm/OeMNimCLfncnGPzxUbS8+lVTvzjDYoO/pg0xlgye9N3gkFicDvVclx/Cab8+funJoGTl8tyee5pm7Gc4I9KjO8cgH8qaQw/gbP0oAkz1znPrmmF+Dz+FNKvgZBP1pADtxtbPrSGSBsHORUit8nzZJ7A9Kg2ucZU/XFPw3RVfNKwx0xUr83boe9Z6puFyc4HkSYJ7/KavupIIAP5ZpotyLO8YqR/o8n/oJpMD/9fGk+6n1P8AOoJf9Z+H9Knk+6n1P86gl/1n4f0rRECt/rG+h/nUj/8AHvH/ALrf0qNv9Y30P86kf/j3j/3W/pVCGJ1i/wB0f1qP+L/gRqROsX+6P61H/F/wI0gFP3R+NOt/+PuD/eH86afuj8adb/8AH3B/vD+dICNP+PcfX+gqUfdX8f5VEn/HuPr/AEFSj7q/j/KgB91/rF/3E/8AQRUV1/rD/uipbr/WL/uJ/wCgiorr/WH/AHRQA23++Poad/y7x/7x/pTbf74+hp3/AC7x/wC8f6UDFj/i/wB1v5VE/Qfj/OpY/wCL/db+VRP0H4/zoAWLvTf4BTou9N/gFAD0/wBTJ9Kjj+4foKkT/UyfSo4/uH6CgQ0/xU/+Jfw/nTD/ABU/+Jfw/nQMltf+PmP6f0FVm+/J/vGrNr/x8x/T+gqs335P940gEXr+FOk6L9KavX8KdJ0X6UIBq9D/AJ7Gpp/+PWH/AIF/OoV6H/PY1NP/AMesP/Av50wIl6j61M//AB6j/eNQr1H1qZ/+PUf7xoAj7Cor7/kFah/16y/+gGpewqK+/wCQVqH/AF6y/wDoBpMD/9k=;clipPath=inset(1.36% 0% 0% 0%);imageBorder=default;" vertex="1" parent="1">
          <mxGeometry x="320" y="280" width="121.18" height="120" as="geometry" />
        </mxCell>
        <mxCell id="GaBGJICAfNew4UjpheJe-18" style="edgeStyle=orthogonalEdgeStyle;rounded=0;orthogonalLoop=1;jettySize=auto;html=1;exitX=1;exitY=0.5;exitDx=0;exitDy=0;endArrow=classic;endFill=1;" edge="1" parent="1" source="GaBGJICAfNew4UjpheJe-15">
          <mxGeometry relative="1" as="geometry">
            <mxPoint x="480.71" y="240" as="targetPoint" />
          </mxGeometry>
        </mxCell>
        <mxCell id="GaBGJICAfNew4UjpheJe-15" value="" style="shape=image;verticalLabelPosition=bottom;labelBackgroundColor=default;verticalAlign=top;aspect=fixed;imageAspect=0;image=data:image/jpeg,/9j/4AAQSkZJRgABAQAASABIAAD/4QBYRXhpZgAATU0AKgAAAAgAAgESAAMAAAABAAEAAIdpAAQAAAABAAAAJgAAAAAAA6ABAAMAAAABAAEAAKACAAQAAAABAAAA/6ADAAQAAAABAAAA/gAAAAD/7QA4UGhvdG9zaG9wIDMuMAA4QklNBAQAAAAAAAA4QklNBCUAAAAAABDUHYzZjwCyBOmACZjs+EJ+/8AAEQgA/gD/AwEiAAIRAQMRAf/EAB8AAAEFAQEBAQEBAAAAAAAAAAABAgMEBQYHCAkKC//EALUQAAIBAwMCBAMFBQQEAAABfQECAwAEEQUSITFBBhNRYQcicRQygZGhCCNCscEVUtHwJDNicoIJChYXGBkaJSYnKCkqNDU2Nzg5OkNERUZHSElKU1RVVldYWVpjZGVmZ2hpanN0dXZ3eHl6g4SFhoeIiYqSk5SVlpeYmZqio6Slpqeoqaqys7S1tre4ubrCw8TFxsfIycrS09TV1tfY2drh4uPk5ebn6Onq8fLz9PX29/j5+v/EAB8BAAMBAQEBAQEBAQEAAAAAAAABAgMEBQYHCAkKC//EALURAAIBAgQEAwQHBQQEAAECdwABAgMRBAUhMQYSQVEHYXETIjKBCBRCkaGxwQkjM1LwFWJy0QoWJDThJfEXGBkaJicoKSo1Njc4OTpDREVGR0hJSlNUVVZXWFlaY2RlZmdoaWpzdHV2d3h5eoKDhIWGh4iJipKTlJWWl5iZmqKjpKWmp6ipqrKztLW2t7i5usLDxMXGx8jJytLT1NXW19jZ2uLj5OXm5+jp6vLz9PX29/j5+v/bAEMACAYGBwYFCAcHBwkJCAoMFA0MCwsMGRITDxQdGh8eHRocHCAkLicgIiwjHBwoNyksMDE0NDQfJzk9ODI8LjM0Mv/bAEMBCQkJDAsMGA0NGDIhHCEyMjIyMjIyMjIyMjIyMjIyMjIyMjIyMjIyMjIyMjIyMjIyMjIyMjIyMjIyMjIyMjIyMv/dAAQAEP/aAAwDAQACEQMRAD8A9pt1CbvkVFHQD+Hipba32Syyb2bzCDg9uBWfBexX9qZEaRdrgEoDkkH2HPT9a0Le9hkWHcfKeVcrFJlW6dMGtWcEFd6l1RS4oQgjIORTZZEiRnkbao6msztilYdnBAqJ/P8AtCbNnlYO7PXPasyx1N9Uv5DDj7LEQAR/FnNbIHFAxKQmnUhFACZpc0YpRQACiiikAUUYpDQAtIaKKAFFFJilFACk80lIaUfhQMXNGaTPPeloEGMnNLSZooGBpaBRQAdKM0hooAWikpRQAU1qdSHrQB//0PTtSaM+FLltPEsZC71jX5ZBhua5HSPG+o65dxW6fZPIQN5rDO8nbkDPYtz27VpeIPF1lEunhJGlg88292IJwAoYD0Oe3SuL8UvpfhiWXR9N3SXCOhe4nnzyOi9cgYB/Or50cag0en+H9ff7bNpTWF9HFDzHc3PJYH5vm9OuPwrm/iX4yltg2jWQQs4KzFlJ2njA6/jV/wAFXMC+DYdWR55lKb5lnYyEEEhsfLnPH8q8n8VXi33jO7NkpnhmuTIvygl8d84GAe/tQbQd1qeseBUk8P8AhvzLh3ulf5k8hGdsntgD02n8a7Oy1aO9WNlhmjSVdy+am1hkZ5HauU0iyl1jQ4rm3lnsrSdAxXzMMowepx6j9azLnxHo/ha9S2sZLrU7kArGZJw+ARjBPbBH6Umyk2eoA5pcVlaPdPJotvcTQmF2j3PFjlD3FaEMizIJFOQwzSLJaMUnehjgd/wFIBaQ1SL3dyxWJGt1VsF5ACWHsKuqDjkk+5oGFIaU0goEKKKBSGgBeaO9JTqAENKKKKACiiigYUUUUAFHeiigANFFFABSikpRQAUhpaQ0Af/R4vUPEStrMroWNncOvmIznacYOR+OPyrP1yEvczXMt0fLYs+Gxu3Yzjp7j86ySeXc7XTPKv0z2zUbytHF975DzmQ5Y/Ws7ahY6vw74x1TQ7G606KZRaXClHjMe4LnI+X07flWv4cvtNk0Cd4ty6o12HgjgI8wRlFDEgjJxjtXnJlLOSCT8uG39OeePyq7pVx5N1hppIonPzlWAbbnsD27GtEyeVG5d+JNSGsSzzXEsshZiQrFAeuNq46YA4FMt7+/ttVt/wBwQzSq0atGGyN3occcfrSeIWtrG4MEEbYj3EPcBTnjqMe4PWsu11KayvVuSNzNmRHGCV57ZGBxnpSHY9r1zxdcWWn3Nle6hAmpL5ePIPytldzdOh5P44q74Z+IJt/DDy30SbbLbB9/D7mKgbxjjvz6V4Nf6lPPLiSdmAAQEA4wAAMEirWl63cQg2jTnyHkSSRdoZSVIwWH+FMmx9L6B41tfE0C/wBnywLOFUyo5JClumPWusgDiJfMKl/4iowM183aVrltB4midWliiluUM8/nlVfB6oD2+XH4V9HWtxDdWyTwSpJE4yrIcg0xxZPRSClpFCGkFKaQdKBBRS0UDAUUUUAIaUUhpRQIKKKM0DCjvRSigAopDSigAooooAQ0opDSigAprHHNOpCcGgD/0vHxu3hTggn7wzhvTrTGjAj3FFzxkPnJ7cVNNHdLcPiORDHnesoOOvGAfahrZ1hE7EshON24Zz64+uf0qbALOLT7NFJC8xuGJ8yNgNrehX/Par/h2azs5mubuwgmaIhkjl5B9gOnX37VRS3jeUK9z5bZ6qpK9s47+laz3ttY6gjxRJcRiJR86dDgDPX1NJjudFrdlZ+I9Mv9ZitXidYjI0ZkJCuCgyRt46etedGXdJtGQx6MO30/Kr99qk9y0oDMUkPzRoCAe/PrWjo3hu8v5HE9pcxb4WmifbgKADnP4f0qkBjMDt6gtknHoT6VYg0+9njkkhTzEjXLlWGV5GMjOepqzrVtp9tcRCwncj7Mjyo/8MnTA9v8ap2moz2EscsLFHRtpUdDnPJHt/WmI0dNAurm3jEixLLtBkdyfL/w6mvp/wABxW1t4ejgtLsXdqrHy5g24OPrXy/Z+RfO009xDbBSC+1DucnjgDqo5Jr3D4Zatc2fhu7M8sNxZ2MgVRbEcKerc4yM+9O5FtT1mnVyOi+OtM1nW30u3Y+YFLq+crJj7231rpkuI3aMJlg4OCoyOKRRNRRSg0DEooNKKAA0UhpQKACiiigQUUUUDCiiigBRSGiigApRSUUABopRRQACmtzTqaevPPtQB//T5K51S8sNbu47Ro9RhKiFWCGTchXqe+R0H09q5vVrZrIxFGO2RSViYk7AB6nr9a25b+5g0iT+zoWjs5H3yyxJiSJhkAMw4GS36Gsu3srjV54y0M0qsu2LyD5mexzg5IGTSAoWMDzxeTbQbrtziLILZA4OB9QKe9tJaqXu3KOpwsci7WcdiB3qW7d9N1K4Qsnn25eNGUZUHJz9Ouc+orIYFmzyzdC2c0DJGuZBN5kbhTnIwny/lVu31S9gZy1xLsl4cbyCRg++Koqjk4Xk/hViOMCQK3ynGSdp4H/66BEs5tfPZFaR4SvUrhifrUFnZvc3CRRs7SZ4GTn6HHfir1ppL3PmwPcQwSRgridtm49ODTLe2aPUTC1wquHKmTJwcHHWmBtabp+m21lLcata3VtJlWtYogQT/eBBHI966Hw3qos9RgubITtcS5WawtdwU/NgFgOuMg81oaXp+jm7tob+/i1e3uUEYbzCxifIAPAyMcn04rNvfDmn2GozyaPriBLNzGWmlIeTPzZG0dOg5xSA7LW9csvBms6LLaWsEvlW0oeYA+WQRnIJ7n5OfU12+hXlnp+ryW0dy7W95++iknkUn8PbmvANYlea5R3jXOxUeQbfKz1wOR/XpXpHwm8NyXm/XNUe4mdcLAZD+6deRuAwOmP1oBqx7QpzyKU1XhQRuQGbBUYQ9F+lWKYCCig0UAFKKBRQAUUYpRQAlFBooAKUUlFAAaKKKAFFFJRQAGilFFAAKa1Opp60Af/U5mz1OXV/DMunWrwWS2n/AB8g5VbgnO36twQOnXmsKLVp/CWqQTabchVMYkXGSY1I5Xtt6n0696DbX6eHJmtbKRLNpRJJOUbL4Bxg+2WNc8qtfTYzuJb7zA4bj8emPSkBf1e+XVtae63LALhwz46cqAcAck53H8KosY4ppI42NxEvyrIcruA74J4qfWLRdNu2tCQjIqq7oMFmABOD9Saz8rsZXBY542nvn6UDRbhjldUMce4s/AVuvYdD7ntW7eQw2FrbxXVq6XpTfgZCsC2Ruz1+Ue30rGjvGjEQgZ45FU7yJCFz64B+n50y4uZbyZpJ5JHcnjeSSB6c0CJGuZHl80nexOST15/AVGxYkkNj23c0wNyPvH14xSlULAqMetICeO7lRBGsjKhIZgD6Z6/nTVkbj5VI6fe4JNN2oygHg9jnr7U1jsO7GCvZsEGmB03hTRf+Ei1WKynaO3gblpgNzE9AB7k8duhr2jxLqdh4J8IxaBZ3rDUFiJiYKcAD5iT7dh9K8M03Wza2kzPdNDcRKv2bZGcb9wPIBx0zzirF54hu9XMbXdw7si+UjlACFJ5+bHPTvQO1z6K8K3+p69pUM1xLEkDxjcYWIlDg5HUY6CuxThcenHWvOvAHibQLfQotPtJ5DMrKPJfBkOflzx1AxXoq9PxpiFNFBpCaAFopM0ZoAcKQ0maKAFzRmkpRQAUUUUAFFFFABRRmjNABSigUUAFNbPbrTqa2cjHWgD//1fMtV1PUrHTH0NruRrETbliVwdjcnp1HBrAYPAULIG3oGUAfKARkDB4H/wBetLUNRaa1FriMEOHWRRlvX5m7nnj6Vs6C+nN4W1S3dN11LEZoCxGU2HgDPGcDpnNIDOF15Nl5jmGeSWbzGQruZdvp6Zz29KxpFKFyTyWJOB1HJ4roNL06WGzl1S8ilezjUxRgqcOzKQOg6DAPBxweawLlxNcDaQqKoQeWuBgfiaB3L8JhbRjuiAnWbeMZLEdDnt/dqqnXJOT2z0pYpNkZGAxYc0jfKMKeD15oENY5zhjjuKAzHrtyPajHzFeQT0oKADng9sjikBLEN8gAGcnr3B7YrSu2s4rR7aOJvPTH75jgg9SKyg+2RSAwODtwKVm3SswUbTyNx70DHI2HDKvXn1H41atlcsWDSFAckoDjOOnA5/8Ar1UiTcAxLkA4O1en04r0zwSdB1rUdPsdYEFvDbIRHCrNiWTAI4BxnIH1oGdPoXw01u10vStdsp44dYiB3W0ygIVOeCR3wf0r2W2MsdvEk53y4Cu65wSO9Ms7lby0iuIv9XKocfQ1bAqiQz6UZpCtG04oAM0UbadigBuKXFLRQACiiigAopRRQAmKKWigBMUhp1FADc0opMUooAO1Mc4HTjvmn5rN1PU0sY1YPDktghnC+v1oA//W8/m0WDU/DD6hFbC3ktmEbMhx5rEEkkFu2Occ8CsQElx5LTeVAuzzUU5OSScnHqT36V6P4k1bSLbwFY6FaicCZzc+ci7QoDEYfgZOOn1ry2J5FR0G1TnBA4Xg9aQFy6muobUWksysqkMqK5IGc57/AErOgRSQHcIP72OlLyAN35DvSZ29OB6UAS4w5I5A6DGKsMsD28This44lQjgjsaqKwGTuPNBbjAJNAExPlrs3ZZT8rDvSDBAGOMgkmoDwfX2p+7HryKQy/PaoJIkjbPyAs2OM/8A6sVAIwshYElCSASf5UJcHyzG3I9MUoYeTt2AEEENmkwAjBUDkH1H866zwlNcJdRR21ghmBzGzJhiT64Ocf41ySS5KZbJGc12mi6/OFgiuAsVrEuCQvzEck4Oe44/GkDPftC8V2En/EuvJILO6gCxojOFWRdoI28+hHFdWpG0Y5HrXjuiXt1qnilLnUNMieys1IOYlOMqcHrg5wPfmvUIb9Esmume3+zKgaNo2yCMfSrTEaeabmqGmaxZ6tAJbSdZAeq7vmFXhg8UwH0UmeaWgApRQKKAENKKKKACiikoAWiiigAopCQKhW5hkLBJUJXrhgcUCuT02s6413SbSQJPqVpHITgKZl3H8KrSWYgvJJYLyUzsCxSWXchXGPu44HShjuS69rEWiaNdahKjOkCbiFGSf8/0r5p8SanqV1bCa/uGeG5lZ12nAyDjHH0zXfeMPGCanHqto2oiSyVgpjsh+8C8kfeHc8H2FeLXky+a6R5EKMfKBzwpOfpnmlcVj//X86trcQ6ZJdXcYVogyxpMPlY/eGeT6frWArmMhgQWPU1p6nfJJZRwRzSuiMXJLcE9qxHkH3ePWhoCTBZWbHHVqiJ+bvmo3kwOKRJMnrSGWFx6KCPXpSlSOVYcdRUQf2FTxkSEKwAz39KBDMYxlTSsOOCKV2Me6NiCOxP9Kj3AikMeMjGGJp4I6YGaYmcdKf8AIAOTmgYBTuAwOa2tH+zLfwibK4ZTkY6d+9ZsEDTq5RfuLuJA6Vv+FNEXWPEVrZzyrFCzbmfI+6Bnr26EUCZ63YeIhYwT3X2y2kgVEGyMhZGySMtnOTgisa78Q20bPNHqgjtggxbb/vEDngcA/P17cVm+IPDH9m6rdx28gFnHGJAw53jaD178qR+VcfDqw+wNC8Sk8okifKw6EY9ORmkLofQfg7+xfEGi2t7YqI5YPkLxna4PuR1/GtTTrXX4PGF7Lc3Ecujyxr5AH3lOOhrybwX8SbHwzpYtJtOeT59zvDhT+Rxnt3roLb41WK3bxT6dOLYN8sqvkke64/rVJ3JuevAcUCs3SNasdbsI7ywuEmhcZGOo9iOxrQDc1Vg50PzSioizDoMj0pQxIHFIOZElFUr7U7PTbd57qdI0QZO4/wBK4xPixoMtybdYrsMQdjGL5WPTrQO535NV5b61h4knjQ+hYA14hqHxC1e2VJoNVJWZiuCuQvAPp71ltrLsBfXEzTs43SMhOSx6dPp+tUkS2z6HWVXAKMGB6YrhfH/jK98N+QNPuLEFlJkWXLOuOOmenI/WvL9Q+J+ppp6WdnIVdJFcTgnPHOMN6n9K4zV9evtauTPe3G+R3LMw9PT/AD6VDZSPRpvibrd5HGJLyNEkONsMWzjPfNcxqOqyxeYUlkiVowcocbh9RXMJchnVcDYpzjvSTzh5HkkZgrDBBNUpWQnE1hq00cUbJOQTzkDLD8/qaj1XxjrOqiJrq9mkkRGUyb9pIOM5x1rBaXacBiAO1Q71cZbGfWoZSSCVnyx3ZPsaryyYyMk5qVyF5BqvKVbG7j3oSA//0PG1jlmG2NN2adLpLx7mZgCB0rZ063SKAskisS2eD0p9z/x7O5xk8/WqJb1ObWxBXaScjrT7jThBbrKhY565q9GNxLHaB6UXwb7A2OVyOnTrSGjI2sEzwBSBJD0UmrMihYIMfxAt+pqS1JaQL8tSMqGOTIDLyadHE7suE+8dv+fyrUcM8q7trcYwvWtFEWOJcDoeeOlUkFzCmhMNw0ZYfdB/Suv8I/D++8VMyxXAhRbZpN78LnoBnHHBNcvf/vLuQLgkEY47V1F/4z1XQ7qGz0oiKKOBVI2ZLN37+hxUNjR048EXM+mNYxWQ5m8pp7cArIc5GDjJxtYVxUGtXOlTNawsioLhgT5Yy2CQMt16V1WjfGHW7CG0hntIDBHhZChIZhkdM/j+dcbc6hbXuo3k7RM1uJZJQIsZIzxyTx/9alcLHZ6l4t1NU8q1limWWFWdWDSbSQAduenOa4qKJ5YZYyvzxEM2wDp3/nT77U5JJnlty8QMQAA4JUDkk9DxzVOa9vYsuyIrsCGIUAlT15p2uDJ2bDhudrAHP1FIZ1VtoHXvVaEPdxIQduX+8VHH+etWb60RJl2zLycADvQkwdj074TeMLPR5brTLncTdyK8RUjhgCDn8MV7et4m8AOrZzzmvj60W4guRJCWV1OQwHSuusb/AF7ZJMt1eEn5SxOeD6VqkYzSufSL6rbrLbxl/muN2zHPSqWv+KdO8O6b9sv5iiEhVRQCznHQCvAHXWrY2RMs42f6tvN+583eoPGEtzfagBcy3V1MvCqWLY/3aUkKO4eKvFR17xLcXiSM1swGwHgLx0xWJFeul2r7idpDcjpjBqO60+a3MSMDlsBUTqM+tVIrS5JJZgCDtwcAVJtoWHuWaDc53BXHb1zULavIyFCw244AqFYpHikjGWc5IA/2QTVZbG5lOVglIP8As0xEpn81yx4J6moGuNpPp0qZ9PuraNZZ4WjRvuk9+1Rz2bhEZI2YGNXHHY1NrhcdbzAKx7gU7eWt3Y/Wqijbu4OV6g1K4byHC/3TkflT5WFxyyq4AkwB601kVXOxwQelQpbzufkjdh2wKlNtPG2JUYHGdp60coXFmiCxghjv74qpKpPSr0sU3lB9pweaoOGJGQaLDR//0fI7W4eFWjO05Ocj3qxPcK9qFB5rLt3VWy+SO571allgaIbOPrRcGNhIaRS5OM9Kuauois4o1fhmHFUISDKAxwuRk1Y1eZJZI0iwQg9aOgkU5M+VCpxwpA/M06CB25Qqp9zUk0ixKg2jcqgGoEnO/OykUWYyyTYYgnoSKuXF0ECoGwSQD9KzbXc0jkDkVP8AZ2kZt2PSnewWL+pwLDrMi5+UoCv0wKk1MtJeRTxhpFlQZKAEg4x/Sp9VhQ3sLBSd9suPqBWhHZxvp1nIFCfJ83ucmpEzn7HS4p3kEyShP4SFCtjIzjqOma63SYLOzazEVkqNMphndnYsAQPQccimQRRIQMjPpVrzo4mDfKMeuOaom5HaI0muOksFvGWicD5zhvlA455PH610UVsFlj8zT9PmVQRvlQnn1xkVxN/eLba7FcqyKTzgLitL/hJ4hz5wyeTk0ReoNNolTwq863ETvbxL5zSp5S7eoxj9KrXOjyLcQxT28bLF/GQGJG4E9vb9atW3ilZZ/JiwSw5Ip91q6SttByatE6iw2ECNIQMrjC/KBxV2NcRogcqB0xxWXBctIdg7/pU3nptHJLeuatEs02UykB5WJHqelMaxVXZ1kO896omc+W2Dgn1NT286sRH5hBI5JpiRm3mjyTTLL5pLISRzVJdFcSbiwOOme9bUrspyy8Z6gVEX3HINFkMyV0QwXHmxTMnXAQDPPHX8abGjwQm2uJbp48l0KuSc4OB16ZOa123NUTRsRRyodzFvJI7iFVEYOxwQMDgYrYtItNjtmjEiBidmSOdm3tx6r+tMEKg/MgINRtbQs33SoHfNCihjJtG02bUFaK5ZUkhXIJHDcZ7fhVaz0iD7dJZb4w0kRBDewzxg+oqy9msgG1xwcgnIpkmnwvIJcYfqW3mk0NFhLNIGjj+0FSeOTwPT+lZVxYxtqjpE5lKnJIYDgjjqR6VYnsEkQAySIR/EDmqUNjNZTPJHP5gbrvWk0x2RNomlnXriWyimSKVFJHmtwcYqSXwVqJcrGqSOGIODxVCOR43LNblX7kd6bLd6ih3w3EsY/wB/pS5QR//S8PBYfkKQB/Suhk0yK2ADYLYzUIt488AUxNmTEkjOMcZOBUsqFbsRMSWOOce9a0NtGZ0DD5eSaz7pRLqxZvvA4UUMEyzLp4DtuJNOt7FAeRn61Pc3CtM45wOOntRDNmIbDzjBpDKNu6i5mDHpVuF8q23kGlGmb9khOQTyM1fNnEsKl5VjX2pNDTInm80iZyyny9qr6c1bkW5a3WOOJto6MxxWe1xZ2rHyi9xJ/CDwAfc07F3fP5lxIQn91elJIke4lTrPCG9N2TVeScxjJnJI59Knkjgt17c+1Y13OJWGAQtUCJbqWO4nR2O5l54NVZzHM+5gNvpUaFegPXqalWHcwAVmHr6U0O9i5bTGIBYAEU/3eprUtiWIHUn9KzbSFuAf5V0eh2KyyGaYP5SDJwtUiZFyeSOytI4ogTKwyzGqyS560y9lE11u5A6AEY4pij5qtENGiGG3npTTIB3qBWIXPFNy7c5qibF9LvA2tyvpS77ZuxH0NZpLA8mgMaYzWVrfHEjj6809RGeFm/PgVkecRwDzTfP96QXNowP1Ty3/AN1s1BJGy53QsPwqgs+DkNg/WpDduB94mpHckYj+4xHpimF17qQPpTftTj+JgfrxSNfSdMDnvimA8uuOc/lTGeNRyCPwqL7WckEknNPF+RwUXHuOaAI8RyHgdPUVE0OTkY5FTmeFjygH0pCY2+6zD2xR0Gmf/9PyPzJZG3FiT71NlhjHYVYltiHIOBj0pEtVzljkdgTTBlYO6yblc89RUaAG4OU3knIwPwq7IttGDvZc+1UnvYIz+5jZm9aBFyG1lkIPlFQecmrP2aONWM9zHGo/M1j/AGm+uSFDsq+gqdNJeR8yMWA6/NSGWp9QhKLFbFj6tmmR2rzNuckj3NTR2MNsCXZdw7Eio5tQMZAQKGx270ATeVbW684yPaqlzqJYCOFRxxUKedcsWnD7B/DUmQv3QgHsKQERkkK5bBPpVZkLnmrLcnJ60LCWIOPx9KaDYhjtwTgrnPSta3s1jQNKTtA+6O5qa0s1BDtgIB19aJplaTCDgVaQripGruAo2g9QOuK6B5WtdOwpZFIwMHk1maXbszeaQAop99cmVsFuBxTsSyqWLOWbualjOTVbdzUiN1qiWWVIYkZ5p+cAVXRuakJpiHsRioyfeg9KYc4oAkVBJxnntUbwyIcbGyO9Ck561aS7c4HBA68UDKoV8fKDUnlORzmpGnO47QAD7Uiy7STzmkAm4J2z9aDcEdETFTB4ZxscqnHBxVWaNomwSCD3BpgK1zn7yKaZ5kJ6oQaiY84phHNMCVgrfdYUm11Gc55qAtT42bkKcGh7Af/U8on1JkmfaO/U1Skup5ieW+lW47USyFnqwtknX096YbmYlvJKRkGrsOnbeX/nVseXEOQDj0qpc3wAwuPoO1IC1uigX5UHH41GdUEYJGM/lWTNO7jlzj0pkcZfgnGe9AFiW/kml4QEnpzRFFsbfJktjpTo0jgPyqC3rUbykknOaALQkwuSabu3Hgmq6sWNXIIiTzTAkihLYzzWna2eT0AHUmi1tgeXO0AZp811hdkXA7mmkJhcygDyozx3qO2tvOlABPHWqzSop5//AF1bjv4tPj+b5pT1HpVEmtPiC2WCLA9ayZVINPTU4H+Zm5PaoJr63aY7Mk+1UIbk/jUisAKqm5j3Hhvyp/2iJRkhgPXbTuKxcEnFOV6qC5iYDbHI34U8XAHIhkb2xQFi5uBFRMeag+2IvJt5R9Fpv9oRf88pfxFAWLFKGqm2pwf3W/KmnUYDzzSuFjQzSGqA1OHcFO6pk1CA/wAYouFi0O/FPV8p5LDIPQ+lVvtsBH3hTWu4j/FTuFmSMCCfamHJpWkRz+7IPtTS23rRdDsNK80qN5ZzSFx60hYFTii4H//V8na5K8ccj1qqb/YAC2aZhnA7/KKFtYxgu2faqAY17uU4TJ9STUSl5R83FWmiiz8qk+5oKgDilYCNYkXrzTw2OFGKAtO20ARMx6UKhJ6VIIznpV+1td3J4FAEVtalz0rYitYoUDyEeuKZ5kUCEKATVd52lYktwe1UhFie6Mh2oMKKqP5rny4hlz+gpjy7cADLHinXLmzt/L3brhx8x9B6VQitK4t3/dyB2AwfUGq0fclmOfX1ph6h+/epLfLKWABI9akY4lk579AKQSe53DqAKYzeYzKuQwOCSOn0q/ZWJOHdcZ7HrVJCYW1rNcjapKAdSe9b1rYwRYLZYjsTxTYsIgUdqeJD+FWkQ2aAljA4XH4UxnU881TMlAkNMksGTjq351E+COcn680zzKTfQAwwRsclE/75qNrOFj/qk/Kpi47Ub+KVkMqnToCc+Uv4cUw6VC/G0j3FXQ2aeG4NKw7mWdIQcI5z71E+kTkfIVJ9jW2McGnjGaXKO5zEtldQ8sCB7GqpE4Y4ZuK7MlQORn8KR7S0nXdLEGPbHFLlY+Y47zZ1HzPTheOAOSPeulm0SyYZVnUn8hWbJ4fjLHbNuHoKLMLn/9bx7PA6dAeKQ1A+pW2QAknAA5A/xqM6hD2R/wAh/jVAWiaXtVJr+Hssn5CnDUIQPuvn6CgC4BT1WqY1OAdFk/If40o1WD+7J+Q/xoA0EGDVkTIFwWA/GsZtUjI+RX/ECqj3jNuzng8UAbzTQHrMufrTfNiUjD/jiue8weezc4qcXigruL4XtgH+tCkKxuxyJGWml+6Puj+9VOVmeZpXLEt1qEapbLb7CsrN1BIHH61V+3Ick7zn2FPmCxa5ZsAHmriwlIT5Y5PFZsWoRxkFg5+gH+NXRrdrt/1cufoP8aaYrF62giUBihZh14rQWdAPusPwrETXbVekc35D/Gpf+Eitc/6ub8h/jV3RLRtCdD6/iKU3Cep/KsdfEdoB/qp/yH+NL/wkdp/zzm/If407isa32hPX9Kb9oXPWso+I7TvFP+Q/xpP+EitP+eU35D/GlcVjW89SfvUvnL/eFY//AAkVp/zym/75H+NB8RWf/PKb/vlf8aLjsbHmJ/eFKJUP8Q/OsUeIrP8A55TH/gK/40v/AAkVl/zxm/75X/Gi4WNnzkA6j86BL9Kx/wDhIrDvby/98L/jQfEWn/8APvN/3yv+NFwsbokHqBUizAcbhWCPElh/z7zf98j/ABpf+El09Tn7NLn/AHV/xp8yFZm+syPIEU5Y9gOtaP8AZ92E3G3kA64IxWBpPjfT7K8WSW3uCg7JGuf510Z+J2g7yzWmoc/9M4z/AOz1cWmiJcyM922sVlV4/wDeXFXbfRL69i8yyRLle/lOCR9RTZfiP4bnUrLZag6+8Mef/Q6pJ490GyujPp8eqW5YYYKiDP8A4/Sdhq7P/9k=;imageBorder=default;" vertex="1" parent="1">
          <mxGeometry x="320.71" y="140" width="120.47" height="120" as="geometry" />
        </mxCell>
        <mxCell id="GaBGJICAfNew4UjpheJe-20" value="" style="endArrow=classic;html=1;rounded=0;entryX=0;entryY=0.5;entryDx=0;entryDy=0;startArrow=oval;startFill=1;" edge="1" parent="1" target="GaBGJICAfNew4UjpheJe-6">
          <mxGeometry width="50" height="50" relative="1" as="geometry">
            <mxPoint x="500.71" y="270" as="sourcePoint" />
            <mxPoint x="630.71" y="370" as="targetPoint" />
          </mxGeometry>
        </mxCell>
        <mxCell id="GaBGJICAfNew4UjpheJe-22" value="" style="endArrow=oval;dashed=1;html=1;rounded=0;startArrow=oval;startFill=1;endFill=1;" edge="1" parent="1">
          <mxGeometry width="50" height="50" relative="1" as="geometry">
            <mxPoint x="500.71" y="270" as="sourcePoint" />
            <mxPoint x="484" y="300" as="targetPoint" />
          </mxGeometry>
        </mxCell>
        <mxCell id="GaBGJICAfNew4UjpheJe-24" value="0.96" style="rounded=0;whiteSpace=wrap;html=1;strokeColor=default;" vertex="1" parent="1">
          <mxGeometry x="680.71" y="270" width="39.29" height="40" as="geometry" />
        </mxCell>
        <mxCell id="GaBGJICAfNew4UjpheJe-25" value="0.04" style="rounded=0;whiteSpace=wrap;html=1;strokeColor=default;" vertex="1" parent="1">
          <mxGeometry x="680.71" y="230" width="39.29" height="40" as="geometry" />
        </mxCell>
        <mxCell id="GaBGJICAfNew4UjpheJe-26" value="&lt;div&gt;real&lt;/div&gt;" style="text;html=1;strokeColor=none;fillColor=none;align=right;verticalAlign=middle;whiteSpace=wrap;rounded=0;" vertex="1" parent="1">
          <mxGeometry x="620.71" y="230" width="59.29" height="40" as="geometry" />
        </mxCell>
        <mxCell id="GaBGJICAfNew4UjpheJe-27" value="fake" style="text;html=1;strokeColor=none;fillColor=none;align=right;verticalAlign=middle;whiteSpace=wrap;rounded=0;" vertex="1" parent="1">
          <mxGeometry x="621.4200000000001" y="270" width="59.29" height="40" as="geometry" />
        </mxCell>
        <mxCell id="GaBGJICAfNew4UjpheJe-30" value="" style="endArrow=none;dashed=1;html=1;rounded=0;startArrow=oval;startFill=1;endFill=0;" edge="1" parent="1">
          <mxGeometry width="50" height="50" relative="1" as="geometry">
            <mxPoint x="483" y="240" as="sourcePoint" />
            <mxPoint x="470" y="240" as="targetPoint" />
          </mxGeometry>
        </mxCell>
      </root>
    </mxGraphModel>
  </diagram>
</mxfile>
